<?xml version="1.0" encoding="utf-8" standalone="no"?>
<!DOCTYPE svg PUBLIC "-//W3C//DTD SVG 1.1//EN"
  "http://www.w3.org/Graphics/SVG/1.1/DTD/svg11.dtd">
<!-- Created with matplotlib (https://matplotlib.org/) -->
<svg height="259.116562pt" version="1.1" viewBox="0 0 372.103125 259.116562" width="372.103125pt" xmlns="http://www.w3.org/2000/svg" xmlns:xlink="http://www.w3.org/1999/xlink">
 <defs>
  <style type="text/css">
*{stroke-linecap:butt;stroke-linejoin:round;}
  </style>
 </defs>
 <g id="figure_1">
  <g id="patch_1">
   <path d="M 0 259.116562 
L 372.103125 259.116562 
L 372.103125 0 
L 0 0 
z
" style="fill:#ffffff;"/>
  </g>
  <g id="axes_1">
   <g id="patch_2">
    <path d="M 30.103125 235.238437 
L 182.284943 235.238437 
L 182.284943 17.798437 
L 30.103125 17.798437 
z
" style="fill:#ffffff;"/>
   </g>
   <g id="matplotlib.axis_1">
    <g id="xtick_1">
     <g id="line2d_1">
      <defs>
       <path d="M 0 0 
L 0 3.5 
" id="m2b0b206ce0" style="stroke:#000000;stroke-width:0.8;"/>
      </defs>
      <g>
       <use style="stroke:#000000;stroke-width:0.8;" x="37.02048" xlink:href="#m2b0b206ce0" y="235.238437"/>
      </g>
     </g>
     <g id="text_1">
      <!-- 2 -->
      <defs>
       <path d="M 19.1875 8.296875 
L 53.609375 8.296875 
L 53.609375 0 
L 7.328125 0 
L 7.328125 8.296875 
Q 12.9375 14.109375 22.625 23.890625 
Q 32.328125 33.6875 34.8125 36.53125 
Q 39.546875 41.84375 41.421875 45.53125 
Q 43.3125 49.21875 43.3125 52.78125 
Q 43.3125 58.59375 39.234375 62.25 
Q 35.15625 65.921875 28.609375 65.921875 
Q 23.96875 65.921875 18.8125 64.3125 
Q 13.671875 62.703125 7.8125 59.421875 
L 7.8125 69.390625 
Q 13.765625 71.78125 18.9375 73 
Q 24.125 74.21875 28.421875 74.21875 
Q 39.75 74.21875 46.484375 68.546875 
Q 53.21875 62.890625 53.21875 53.421875 
Q 53.21875 48.921875 51.53125 44.890625 
Q 49.859375 40.875 45.40625 35.40625 
Q 44.1875 33.984375 37.640625 27.21875 
Q 31.109375 20.453125 19.1875 8.296875 
z
" id="DejaVuSans-50"/>
      </defs>
      <g transform="translate(33.83923 249.836875)scale(0.1 -0.1)">
       <use xlink:href="#DejaVuSans-50"/>
      </g>
     </g>
    </g>
    <g id="xtick_2">
     <g id="line2d_2">
      <g>
       <use style="stroke:#000000;stroke-width:0.8;" x="76.548225" xlink:href="#m2b0b206ce0" y="235.238437"/>
      </g>
     </g>
     <g id="text_2">
      <!-- 4 -->
      <defs>
       <path d="M 37.796875 64.3125 
L 12.890625 25.390625 
L 37.796875 25.390625 
z
M 35.203125 72.90625 
L 47.609375 72.90625 
L 47.609375 25.390625 
L 58.015625 25.390625 
L 58.015625 17.1875 
L 47.609375 17.1875 
L 47.609375 0 
L 37.796875 0 
L 37.796875 17.1875 
L 4.890625 17.1875 
L 4.890625 26.703125 
z
" id="DejaVuSans-52"/>
      </defs>
      <g transform="translate(73.366975 249.836875)scale(0.1 -0.1)">
       <use xlink:href="#DejaVuSans-52"/>
      </g>
     </g>
    </g>
    <g id="xtick_3">
     <g id="line2d_3">
      <g>
       <use style="stroke:#000000;stroke-width:0.8;" x="116.07597" xlink:href="#m2b0b206ce0" y="235.238437"/>
      </g>
     </g>
     <g id="text_3">
      <!-- 6 -->
      <defs>
       <path d="M 33.015625 40.375 
Q 26.375 40.375 22.484375 35.828125 
Q 18.609375 31.296875 18.609375 23.390625 
Q 18.609375 15.53125 22.484375 10.953125 
Q 26.375 6.390625 33.015625 6.390625 
Q 39.65625 6.390625 43.53125 10.953125 
Q 47.40625 15.53125 47.40625 23.390625 
Q 47.40625 31.296875 43.53125 35.828125 
Q 39.65625 40.375 33.015625 40.375 
z
M 52.59375 71.296875 
L 52.59375 62.3125 
Q 48.875 64.0625 45.09375 64.984375 
Q 41.3125 65.921875 37.59375 65.921875 
Q 27.828125 65.921875 22.671875 59.328125 
Q 17.53125 52.734375 16.796875 39.40625 
Q 19.671875 43.65625 24.015625 45.921875 
Q 28.375 48.1875 33.59375 48.1875 
Q 44.578125 48.1875 50.953125 41.515625 
Q 57.328125 34.859375 57.328125 23.390625 
Q 57.328125 12.15625 50.6875 5.359375 
Q 44.046875 -1.421875 33.015625 -1.421875 
Q 20.359375 -1.421875 13.671875 8.265625 
Q 6.984375 17.96875 6.984375 36.375 
Q 6.984375 53.65625 15.1875 63.9375 
Q 23.390625 74.21875 37.203125 74.21875 
Q 40.921875 74.21875 44.703125 73.484375 
Q 48.484375 72.75 52.59375 71.296875 
z
" id="DejaVuSans-54"/>
      </defs>
      <g transform="translate(112.89472 249.836875)scale(0.1 -0.1)">
       <use xlink:href="#DejaVuSans-54"/>
      </g>
     </g>
    </g>
    <g id="xtick_4">
     <g id="line2d_4">
      <g>
       <use style="stroke:#000000;stroke-width:0.8;" x="155.603715" xlink:href="#m2b0b206ce0" y="235.238437"/>
      </g>
     </g>
     <g id="text_4">
      <!-- 8 -->
      <defs>
       <path d="M 31.78125 34.625 
Q 24.75 34.625 20.71875 30.859375 
Q 16.703125 27.09375 16.703125 20.515625 
Q 16.703125 13.921875 20.71875 10.15625 
Q 24.75 6.390625 31.78125 6.390625 
Q 38.8125 6.390625 42.859375 10.171875 
Q 46.921875 13.96875 46.921875 20.515625 
Q 46.921875 27.09375 42.890625 30.859375 
Q 38.875 34.625 31.78125 34.625 
z
M 21.921875 38.8125 
Q 15.578125 40.375 12.03125 44.71875 
Q 8.5 49.078125 8.5 55.328125 
Q 8.5 64.0625 14.71875 69.140625 
Q 20.953125 74.21875 31.78125 74.21875 
Q 42.671875 74.21875 48.875 69.140625 
Q 55.078125 64.0625 55.078125 55.328125 
Q 55.078125 49.078125 51.53125 44.71875 
Q 48 40.375 41.703125 38.8125 
Q 48.828125 37.15625 52.796875 32.3125 
Q 56.78125 27.484375 56.78125 20.515625 
Q 56.78125 9.90625 50.3125 4.234375 
Q 43.84375 -1.421875 31.78125 -1.421875 
Q 19.734375 -1.421875 13.25 4.234375 
Q 6.78125 9.90625 6.78125 20.515625 
Q 6.78125 27.484375 10.78125 32.3125 
Q 14.796875 37.15625 21.921875 38.8125 
z
M 18.3125 54.390625 
Q 18.3125 48.734375 21.84375 45.5625 
Q 25.390625 42.390625 31.78125 42.390625 
Q 38.140625 42.390625 41.71875 45.5625 
Q 45.3125 48.734375 45.3125 54.390625 
Q 45.3125 60.0625 41.71875 63.234375 
Q 38.140625 66.40625 31.78125 66.40625 
Q 25.390625 66.40625 21.84375 63.234375 
Q 18.3125 60.0625 18.3125 54.390625 
z
" id="DejaVuSans-56"/>
      </defs>
      <g transform="translate(152.422465 249.836875)scale(0.1 -0.1)">
       <use xlink:href="#DejaVuSans-56"/>
      </g>
     </g>
    </g>
   </g>
   <g id="matplotlib.axis_2">
    <g id="ytick_1">
     <g id="line2d_5">
      <defs>
       <path d="M 0 0 
L -3.5 0 
" id="meb014e2b87" style="stroke:#000000;stroke-width:0.8;"/>
      </defs>
      <g>
       <use style="stroke:#000000;stroke-width:0.8;" x="30.103125" xlink:href="#meb014e2b87" y="225.354801"/>
      </g>
     </g>
     <g id="text_5">
      <!-- 0.0 -->
      <defs>
       <path d="M 31.78125 66.40625 
Q 24.171875 66.40625 20.328125 58.90625 
Q 16.5 51.421875 16.5 36.375 
Q 16.5 21.390625 20.328125 13.890625 
Q 24.171875 6.390625 31.78125 6.390625 
Q 39.453125 6.390625 43.28125 13.890625 
Q 47.125 21.390625 47.125 36.375 
Q 47.125 51.421875 43.28125 58.90625 
Q 39.453125 66.40625 31.78125 66.40625 
z
M 31.78125 74.21875 
Q 44.046875 74.21875 50.515625 64.515625 
Q 56.984375 54.828125 56.984375 36.375 
Q 56.984375 17.96875 50.515625 8.265625 
Q 44.046875 -1.421875 31.78125 -1.421875 
Q 19.53125 -1.421875 13.0625 8.265625 
Q 6.59375 17.96875 6.59375 36.375 
Q 6.59375 54.828125 13.0625 64.515625 
Q 19.53125 74.21875 31.78125 74.21875 
z
" id="DejaVuSans-48"/>
       <path d="M 10.6875 12.40625 
L 21 12.40625 
L 21 0 
L 10.6875 0 
z
" id="DejaVuSans-46"/>
      </defs>
      <g transform="translate(7.2 229.15402)scale(0.1 -0.1)">
       <use xlink:href="#DejaVuSans-48"/>
       <use x="63.623047" xlink:href="#DejaVuSans-46"/>
       <use x="95.410156" xlink:href="#DejaVuSans-48"/>
      </g>
     </g>
    </g>
    <g id="ytick_2">
     <g id="line2d_6">
      <g>
       <use style="stroke:#000000;stroke-width:0.8;" x="30.103125" xlink:href="#meb014e2b87" y="195.027727"/>
      </g>
     </g>
     <g id="text_6">
      <!-- 0.2 -->
      <g transform="translate(7.2 198.826946)scale(0.1 -0.1)">
       <use xlink:href="#DejaVuSans-48"/>
       <use x="63.623047" xlink:href="#DejaVuSans-46"/>
       <use x="95.410156" xlink:href="#DejaVuSans-50"/>
      </g>
     </g>
    </g>
    <g id="ytick_3">
     <g id="line2d_7">
      <g>
       <use style="stroke:#000000;stroke-width:0.8;" x="30.103125" xlink:href="#meb014e2b87" y="164.700653"/>
      </g>
     </g>
     <g id="text_7">
      <!-- 0.4 -->
      <g transform="translate(7.2 168.499872)scale(0.1 -0.1)">
       <use xlink:href="#DejaVuSans-48"/>
       <use x="63.623047" xlink:href="#DejaVuSans-46"/>
       <use x="95.410156" xlink:href="#DejaVuSans-52"/>
      </g>
     </g>
    </g>
    <g id="ytick_4">
     <g id="line2d_8">
      <g>
       <use style="stroke:#000000;stroke-width:0.8;" x="30.103125" xlink:href="#meb014e2b87" y="134.373579"/>
      </g>
     </g>
     <g id="text_8">
      <!-- 0.6 -->
      <g transform="translate(7.2 138.172798)scale(0.1 -0.1)">
       <use xlink:href="#DejaVuSans-48"/>
       <use x="63.623047" xlink:href="#DejaVuSans-46"/>
       <use x="95.410156" xlink:href="#DejaVuSans-54"/>
      </g>
     </g>
    </g>
    <g id="ytick_5">
     <g id="line2d_9">
      <g>
       <use style="stroke:#000000;stroke-width:0.8;" x="30.103125" xlink:href="#meb014e2b87" y="104.046505"/>
      </g>
     </g>
     <g id="text_9">
      <!-- 0.8 -->
      <g transform="translate(7.2 107.845723)scale(0.1 -0.1)">
       <use xlink:href="#DejaVuSans-48"/>
       <use x="63.623047" xlink:href="#DejaVuSans-46"/>
       <use x="95.410156" xlink:href="#DejaVuSans-56"/>
      </g>
     </g>
    </g>
    <g id="ytick_6">
     <g id="line2d_10">
      <g>
       <use style="stroke:#000000;stroke-width:0.8;" x="30.103125" xlink:href="#meb014e2b87" y="73.719431"/>
      </g>
     </g>
     <g id="text_10">
      <!-- 1.0 -->
      <defs>
       <path d="M 12.40625 8.296875 
L 28.515625 8.296875 
L 28.515625 63.921875 
L 10.984375 60.40625 
L 10.984375 69.390625 
L 28.421875 72.90625 
L 38.28125 72.90625 
L 38.28125 8.296875 
L 54.390625 8.296875 
L 54.390625 0 
L 12.40625 0 
z
" id="DejaVuSans-49"/>
      </defs>
      <g transform="translate(7.2 77.518649)scale(0.1 -0.1)">
       <use xlink:href="#DejaVuSans-49"/>
       <use x="63.623047" xlink:href="#DejaVuSans-46"/>
       <use x="95.410156" xlink:href="#DejaVuSans-48"/>
      </g>
     </g>
    </g>
    <g id="ytick_7">
     <g id="line2d_11">
      <g>
       <use style="stroke:#000000;stroke-width:0.8;" x="30.103125" xlink:href="#meb014e2b87" y="43.392357"/>
      </g>
     </g>
     <g id="text_11">
      <!-- 1.2 -->
      <g transform="translate(7.2 47.191575)scale(0.1 -0.1)">
       <use xlink:href="#DejaVuSans-49"/>
       <use x="63.623047" xlink:href="#DejaVuSans-46"/>
       <use x="95.410156" xlink:href="#DejaVuSans-50"/>
      </g>
     </g>
    </g>
    <g id="text_12">
     <!-- 1e8 -->
     <defs>
      <path d="M 56.203125 29.59375 
L 56.203125 25.203125 
L 14.890625 25.203125 
Q 15.484375 15.921875 20.484375 11.0625 
Q 25.484375 6.203125 34.421875 6.203125 
Q 39.59375 6.203125 44.453125 7.46875 
Q 49.3125 8.734375 54.109375 11.28125 
L 54.109375 2.78125 
Q 49.265625 0.734375 44.1875 -0.34375 
Q 39.109375 -1.421875 33.890625 -1.421875 
Q 20.796875 -1.421875 13.15625 6.1875 
Q 5.515625 13.8125 5.515625 26.8125 
Q 5.515625 40.234375 12.765625 48.109375 
Q 20.015625 56 32.328125 56 
Q 43.359375 56 49.78125 48.890625 
Q 56.203125 41.796875 56.203125 29.59375 
z
M 47.21875 32.234375 
Q 47.125 39.59375 43.09375 43.984375 
Q 39.0625 48.390625 32.421875 48.390625 
Q 24.90625 48.390625 20.390625 44.140625 
Q 15.875 39.890625 15.1875 32.171875 
z
" id="DejaVuSans-101"/>
     </defs>
     <g transform="translate(30.103125 14.798437)scale(0.1 -0.1)">
      <use xlink:href="#DejaVuSans-49"/>
      <use x="63.623047" xlink:href="#DejaVuSans-101"/>
      <use x="125.146484" xlink:href="#DejaVuSans-56"/>
     </g>
    </g>
   </g>
   <g id="line2d_12">
    <path clip-path="url(#p33b5537d1e)" d="M 37.02048 225.354801 
L 56.784353 225.3548 
L 76.548225 225.354784 
L 96.312098 225.354633 
L 116.07597 225.353116 
L 135.839843 225.337953 
L 155.603715 225.186318 
L 175.367588 223.669964 
" style="fill:none;stroke:#1f77b4;stroke-linecap:square;stroke-width:1.5;"/>
   </g>
   <g id="line2d_13">
    <path clip-path="url(#p33b5537d1e)" d="M 37.02048 225.354801 
L 56.784353 225.3548 
L 76.548225 225.354781 
L 96.312098 225.354595 
L 116.07597 225.352724 
L 135.839843 225.334004 
L 155.603715 225.146801 
L 175.367588 223.274761 
" style="fill:none;stroke:#ff7f0e;stroke-linecap:square;stroke-width:1.5;"/>
   </g>
   <g id="line2d_14">
    <path clip-path="url(#p33b5537d1e)" d="M 37.02048 225.354801 
L 56.784353 225.3548 
L 76.548225 225.35478 
L 96.312098 225.354524 
L 116.07597 225.351192 
L 135.839843 225.307884 
L 155.603715 224.744872 
L 175.367588 217.425722 
" style="fill:none;stroke:#2ca02c;stroke-linecap:square;stroke-width:1.5;"/>
   </g>
   <g id="line2d_15">
    <path clip-path="url(#p33b5537d1e)" d="M 37.02048 225.354801 
L 56.784353 225.3548 
L 76.548225 225.354777 
L 96.312098 225.354477 
L 116.07597 225.350567 
L 135.839843 225.299741 
L 155.603715 224.638985 
L 175.367588 216.049151 
" style="fill:none;stroke:#d62728;stroke-linecap:square;stroke-width:1.5;"/>
   </g>
   <g id="line2d_16">
    <path clip-path="url(#p33b5537d1e)" d="M 37.02048 225.354801 
L 56.784353 225.3548 
L 76.548225 225.354775 
L 96.312098 225.354387 
L 116.07597 225.348176 
L 135.839843 225.2488 
L 155.603715 223.658788 
L 175.367588 198.218595 
" style="fill:none;stroke:#9467bd;stroke-linecap:square;stroke-width:1.5;"/>
   </g>
   <g id="line2d_17">
    <path clip-path="url(#p33b5537d1e)" d="M 37.02048 225.354801 
L 56.784353 225.3548 
L 76.548225 225.354772 
L 96.312098 225.354331 
L 116.07597 225.347265 
L 135.839843 225.234198 
L 155.603715 223.425118 
L 175.367588 194.479832 
" style="fill:none;stroke:#8c564b;stroke-linecap:square;stroke-width:1.5;"/>
   </g>
   <g id="line2d_18">
    <path clip-path="url(#p33b5537d1e)" d="M 37.02048 225.354801 
L 56.784353 225.3548 
L 76.548225 225.354771 
L 96.312098 225.354223 
L 116.07597 225.343823 
L 135.839843 225.14621 
L 155.603715 221.391568 
L 175.367588 150.053372 
" style="fill:none;stroke:#e377c2;stroke-linecap:square;stroke-width:1.5;"/>
   </g>
   <g id="line2d_19">
    <path clip-path="url(#p33b5537d1e)" d="M 37.02048 225.354801 
L 56.784353 225.3548 
L 76.548225 225.354768 
L 96.312098 225.354158 
L 116.07597 225.34257 
L 135.839843 225.122391 
L 155.603715 220.938979 
L 175.367588 141.454138 
" style="fill:none;stroke:#7f7f7f;stroke-linecap:square;stroke-width:1.5;"/>
   </g>
   <g id="line2d_20">
    <path clip-path="url(#p33b5537d1e)" d="M 37.02048 225.354801 
L 56.784353 225.3548 
L 76.548225 225.354766 
L 96.312098 225.354032 
L 116.07597 225.337886 
L 135.839843 224.982671 
L 155.603715 217.167942 
L 175.367588 45.243905 
" style="fill:none;stroke:#bcbd22;stroke-linecap:square;stroke-width:1.5;"/>
   </g>
   <g id="line2d_21">
    <path clip-path="url(#p33b5537d1e)" d="M 37.02048 225.354801 
L 56.784353 225.3548 
L 76.548225 225.354763 
L 96.312098 225.353958 
L 116.07597 225.336238 
L 135.839843 224.946388 
L 155.603715 216.369679 
L 175.367588 27.682074 
" style="fill:none;stroke:#17becf;stroke-linecap:square;stroke-width:1.5;"/>
   </g>
   <g id="patch_3">
    <path d="M 30.103125 235.238437 
L 30.103125 17.798438 
" style="fill:none;stroke:#000000;stroke-linecap:square;stroke-linejoin:miter;stroke-width:0.8;"/>
   </g>
   <g id="patch_4">
    <path d="M 182.284943 235.238437 
L 182.284943 17.798438 
" style="fill:none;stroke:#000000;stroke-linecap:square;stroke-linejoin:miter;stroke-width:0.8;"/>
   </g>
   <g id="patch_5">
    <path d="M 30.103125 235.238437 
L 182.284943 235.238437 
" style="fill:none;stroke:#000000;stroke-linecap:square;stroke-linejoin:miter;stroke-width:0.8;"/>
   </g>
   <g id="patch_6">
    <path d="M 30.103125 17.798437 
L 182.284943 17.798437 
" style="fill:none;stroke:#000000;stroke-linecap:square;stroke-linejoin:miter;stroke-width:0.8;"/>
   </g>
   <g id="legend_1">
    <g id="patch_7">
     <path d="M 37.103125 172.579687 
L 123.939063 172.579687 
Q 125.939063 172.579687 125.939063 170.579687 
L 125.939063 24.798437 
Q 125.939063 22.798437 123.939063 22.798437 
L 37.103125 22.798437 
Q 35.103125 22.798437 35.103125 24.798437 
L 35.103125 170.579687 
Q 35.103125 172.579687 37.103125 172.579687 
z
" style="fill:#ffffff;opacity:0.8;stroke:#cccccc;stroke-linejoin:miter;"/>
    </g>
    <g id="line2d_22">
     <path d="M 39.103125 30.896875 
L 59.103125 30.896875 
" style="fill:none;stroke:#1f77b4;stroke-linecap:square;stroke-width:1.5;"/>
    </g>
    <g id="line2d_23"/>
    <g id="text_13">
     <!-- dfs b=10 -->
     <defs>
      <path d="M 45.40625 46.390625 
L 45.40625 75.984375 
L 54.390625 75.984375 
L 54.390625 0 
L 45.40625 0 
L 45.40625 8.203125 
Q 42.578125 3.328125 38.25 0.953125 
Q 33.9375 -1.421875 27.875 -1.421875 
Q 17.96875 -1.421875 11.734375 6.484375 
Q 5.515625 14.40625 5.515625 27.296875 
Q 5.515625 40.1875 11.734375 48.09375 
Q 17.96875 56 27.875 56 
Q 33.9375 56 38.25 53.625 
Q 42.578125 51.265625 45.40625 46.390625 
z
M 14.796875 27.296875 
Q 14.796875 17.390625 18.875 11.75 
Q 22.953125 6.109375 30.078125 6.109375 
Q 37.203125 6.109375 41.296875 11.75 
Q 45.40625 17.390625 45.40625 27.296875 
Q 45.40625 37.203125 41.296875 42.84375 
Q 37.203125 48.484375 30.078125 48.484375 
Q 22.953125 48.484375 18.875 42.84375 
Q 14.796875 37.203125 14.796875 27.296875 
z
" id="DejaVuSans-100"/>
      <path d="M 37.109375 75.984375 
L 37.109375 68.5 
L 28.515625 68.5 
Q 23.6875 68.5 21.796875 66.546875 
Q 19.921875 64.59375 19.921875 59.515625 
L 19.921875 54.6875 
L 34.71875 54.6875 
L 34.71875 47.703125 
L 19.921875 47.703125 
L 19.921875 0 
L 10.890625 0 
L 10.890625 47.703125 
L 2.296875 47.703125 
L 2.296875 54.6875 
L 10.890625 54.6875 
L 10.890625 58.5 
Q 10.890625 67.625 15.140625 71.796875 
Q 19.390625 75.984375 28.609375 75.984375 
z
" id="DejaVuSans-102"/>
      <path d="M 44.28125 53.078125 
L 44.28125 44.578125 
Q 40.484375 46.53125 36.375 47.5 
Q 32.28125 48.484375 27.875 48.484375 
Q 21.1875 48.484375 17.84375 46.4375 
Q 14.5 44.390625 14.5 40.28125 
Q 14.5 37.15625 16.890625 35.375 
Q 19.28125 33.59375 26.515625 31.984375 
L 29.59375 31.296875 
Q 39.15625 29.25 43.1875 25.515625 
Q 47.21875 21.78125 47.21875 15.09375 
Q 47.21875 7.46875 41.1875 3.015625 
Q 35.15625 -1.421875 24.609375 -1.421875 
Q 20.21875 -1.421875 15.453125 -0.5625 
Q 10.6875 0.296875 5.421875 2 
L 5.421875 11.28125 
Q 10.40625 8.6875 15.234375 7.390625 
Q 20.0625 6.109375 24.8125 6.109375 
Q 31.15625 6.109375 34.5625 8.28125 
Q 37.984375 10.453125 37.984375 14.40625 
Q 37.984375 18.0625 35.515625 20.015625 
Q 33.0625 21.96875 24.703125 23.78125 
L 21.578125 24.515625 
Q 13.234375 26.265625 9.515625 29.90625 
Q 5.8125 33.546875 5.8125 39.890625 
Q 5.8125 47.609375 11.28125 51.796875 
Q 16.75 56 26.8125 56 
Q 31.78125 56 36.171875 55.265625 
Q 40.578125 54.546875 44.28125 53.078125 
z
" id="DejaVuSans-115"/>
      <path id="DejaVuSans-32"/>
      <path d="M 48.6875 27.296875 
Q 48.6875 37.203125 44.609375 42.84375 
Q 40.53125 48.484375 33.40625 48.484375 
Q 26.265625 48.484375 22.1875 42.84375 
Q 18.109375 37.203125 18.109375 27.296875 
Q 18.109375 17.390625 22.1875 11.75 
Q 26.265625 6.109375 33.40625 6.109375 
Q 40.53125 6.109375 44.609375 11.75 
Q 48.6875 17.390625 48.6875 27.296875 
z
M 18.109375 46.390625 
Q 20.953125 51.265625 25.265625 53.625 
Q 29.59375 56 35.59375 56 
Q 45.5625 56 51.78125 48.09375 
Q 58.015625 40.1875 58.015625 27.296875 
Q 58.015625 14.40625 51.78125 6.484375 
Q 45.5625 -1.421875 35.59375 -1.421875 
Q 29.59375 -1.421875 25.265625 0.953125 
Q 20.953125 3.328125 18.109375 8.203125 
L 18.109375 0 
L 9.078125 0 
L 9.078125 75.984375 
L 18.109375 75.984375 
z
" id="DejaVuSans-98"/>
      <path d="M 10.59375 45.40625 
L 73.1875 45.40625 
L 73.1875 37.203125 
L 10.59375 37.203125 
z
M 10.59375 25.484375 
L 73.1875 25.484375 
L 73.1875 17.1875 
L 10.59375 17.1875 
z
" id="DejaVuSans-61"/>
     </defs>
     <g transform="translate(67.103125 34.396875)scale(0.1 -0.1)">
      <use xlink:href="#DejaVuSans-100"/>
      <use x="63.476562" xlink:href="#DejaVuSans-102"/>
      <use x="98.681641" xlink:href="#DejaVuSans-115"/>
      <use x="150.78125" xlink:href="#DejaVuSans-32"/>
      <use x="182.568359" xlink:href="#DejaVuSans-98"/>
      <use x="246.044922" xlink:href="#DejaVuSans-61"/>
      <use x="329.833984" xlink:href="#DejaVuSans-49"/>
      <use x="393.457031" xlink:href="#DejaVuSans-48"/>
     </g>
    </g>
    <g id="line2d_24">
     <path d="M 39.103125 45.575 
L 59.103125 45.575 
" style="fill:none;stroke:#ff7f0e;stroke-linecap:square;stroke-width:1.5;"/>
    </g>
    <g id="line2d_25"/>
    <g id="text_14">
     <!-- iddfs b=10 -->
     <defs>
      <path d="M 9.421875 54.6875 
L 18.40625 54.6875 
L 18.40625 0 
L 9.421875 0 
z
M 9.421875 75.984375 
L 18.40625 75.984375 
L 18.40625 64.59375 
L 9.421875 64.59375 
z
" id="DejaVuSans-105"/>
     </defs>
     <g transform="translate(67.103125 49.075)scale(0.1 -0.1)">
      <use xlink:href="#DejaVuSans-105"/>
      <use x="27.783203" xlink:href="#DejaVuSans-100"/>
      <use x="91.259766" xlink:href="#DejaVuSans-100"/>
      <use x="154.736328" xlink:href="#DejaVuSans-102"/>
      <use x="189.941406" xlink:href="#DejaVuSans-115"/>
      <use x="242.041016" xlink:href="#DejaVuSans-32"/>
      <use x="273.828125" xlink:href="#DejaVuSans-98"/>
      <use x="337.304688" xlink:href="#DejaVuSans-61"/>
      <use x="421.09375" xlink:href="#DejaVuSans-49"/>
      <use x="484.716797" xlink:href="#DejaVuSans-48"/>
     </g>
    </g>
    <g id="line2d_26">
     <path d="M 39.103125 60.253125 
L 59.103125 60.253125 
" style="fill:none;stroke:#2ca02c;stroke-linecap:square;stroke-width:1.5;"/>
    </g>
    <g id="line2d_27"/>
    <g id="text_15">
     <!-- dfs b=13 -->
     <defs>
      <path d="M 40.578125 39.3125 
Q 47.65625 37.796875 51.625 33 
Q 55.609375 28.21875 55.609375 21.1875 
Q 55.609375 10.40625 48.1875 4.484375 
Q 40.765625 -1.421875 27.09375 -1.421875 
Q 22.515625 -1.421875 17.65625 -0.515625 
Q 12.796875 0.390625 7.625 2.203125 
L 7.625 11.71875 
Q 11.71875 9.328125 16.59375 8.109375 
Q 21.484375 6.890625 26.8125 6.890625 
Q 36.078125 6.890625 40.9375 10.546875 
Q 45.796875 14.203125 45.796875 21.1875 
Q 45.796875 27.640625 41.28125 31.265625 
Q 36.765625 34.90625 28.71875 34.90625 
L 20.21875 34.90625 
L 20.21875 43.015625 
L 29.109375 43.015625 
Q 36.375 43.015625 40.234375 45.921875 
Q 44.09375 48.828125 44.09375 54.296875 
Q 44.09375 59.90625 40.109375 62.90625 
Q 36.140625 65.921875 28.71875 65.921875 
Q 24.65625 65.921875 20.015625 65.03125 
Q 15.375 64.15625 9.8125 62.3125 
L 9.8125 71.09375 
Q 15.4375 72.65625 20.34375 73.4375 
Q 25.25 74.21875 29.59375 74.21875 
Q 40.828125 74.21875 47.359375 69.109375 
Q 53.90625 64.015625 53.90625 55.328125 
Q 53.90625 49.265625 50.4375 45.09375 
Q 46.96875 40.921875 40.578125 39.3125 
z
" id="DejaVuSans-51"/>
     </defs>
     <g transform="translate(67.103125 63.753125)scale(0.1 -0.1)">
      <use xlink:href="#DejaVuSans-100"/>
      <use x="63.476562" xlink:href="#DejaVuSans-102"/>
      <use x="98.681641" xlink:href="#DejaVuSans-115"/>
      <use x="150.78125" xlink:href="#DejaVuSans-32"/>
      <use x="182.568359" xlink:href="#DejaVuSans-98"/>
      <use x="246.044922" xlink:href="#DejaVuSans-61"/>
      <use x="329.833984" xlink:href="#DejaVuSans-49"/>
      <use x="393.457031" xlink:href="#DejaVuSans-51"/>
     </g>
    </g>
    <g id="line2d_28">
     <path d="M 39.103125 74.93125 
L 59.103125 74.93125 
" style="fill:none;stroke:#d62728;stroke-linecap:square;stroke-width:1.5;"/>
    </g>
    <g id="line2d_29"/>
    <g id="text_16">
     <!-- iddfs b=13 -->
     <g transform="translate(67.103125 78.43125)scale(0.1 -0.1)">
      <use xlink:href="#DejaVuSans-105"/>
      <use x="27.783203" xlink:href="#DejaVuSans-100"/>
      <use x="91.259766" xlink:href="#DejaVuSans-100"/>
      <use x="154.736328" xlink:href="#DejaVuSans-102"/>
      <use x="189.941406" xlink:href="#DejaVuSans-115"/>
      <use x="242.041016" xlink:href="#DejaVuSans-32"/>
      <use x="273.828125" xlink:href="#DejaVuSans-98"/>
      <use x="337.304688" xlink:href="#DejaVuSans-61"/>
      <use x="421.09375" xlink:href="#DejaVuSans-49"/>
      <use x="484.716797" xlink:href="#DejaVuSans-51"/>
     </g>
    </g>
    <g id="line2d_30">
     <path d="M 39.103125 89.609375 
L 59.103125 89.609375 
" style="fill:none;stroke:#9467bd;stroke-linecap:square;stroke-width:1.5;"/>
    </g>
    <g id="line2d_31"/>
    <g id="text_17">
     <!-- dfs b=16 -->
     <g transform="translate(67.103125 93.109375)scale(0.1 -0.1)">
      <use xlink:href="#DejaVuSans-100"/>
      <use x="63.476562" xlink:href="#DejaVuSans-102"/>
      <use x="98.681641" xlink:href="#DejaVuSans-115"/>
      <use x="150.78125" xlink:href="#DejaVuSans-32"/>
      <use x="182.568359" xlink:href="#DejaVuSans-98"/>
      <use x="246.044922" xlink:href="#DejaVuSans-61"/>
      <use x="329.833984" xlink:href="#DejaVuSans-49"/>
      <use x="393.457031" xlink:href="#DejaVuSans-54"/>
     </g>
    </g>
    <g id="line2d_32">
     <path d="M 39.103125 104.2875 
L 59.103125 104.2875 
" style="fill:none;stroke:#8c564b;stroke-linecap:square;stroke-width:1.5;"/>
    </g>
    <g id="line2d_33"/>
    <g id="text_18">
     <!-- iddfs b=16 -->
     <g transform="translate(67.103125 107.7875)scale(0.1 -0.1)">
      <use xlink:href="#DejaVuSans-105"/>
      <use x="27.783203" xlink:href="#DejaVuSans-100"/>
      <use x="91.259766" xlink:href="#DejaVuSans-100"/>
      <use x="154.736328" xlink:href="#DejaVuSans-102"/>
      <use x="189.941406" xlink:href="#DejaVuSans-115"/>
      <use x="242.041016" xlink:href="#DejaVuSans-32"/>
      <use x="273.828125" xlink:href="#DejaVuSans-98"/>
      <use x="337.304688" xlink:href="#DejaVuSans-61"/>
      <use x="421.09375" xlink:href="#DejaVuSans-49"/>
      <use x="484.716797" xlink:href="#DejaVuSans-54"/>
     </g>
    </g>
    <g id="line2d_34">
     <path d="M 39.103125 118.965625 
L 59.103125 118.965625 
" style="fill:none;stroke:#e377c2;stroke-linecap:square;stroke-width:1.5;"/>
    </g>
    <g id="line2d_35"/>
    <g id="text_19">
     <!-- dfs b=19 -->
     <defs>
      <path d="M 10.984375 1.515625 
L 10.984375 10.5 
Q 14.703125 8.734375 18.5 7.8125 
Q 22.3125 6.890625 25.984375 6.890625 
Q 35.75 6.890625 40.890625 13.453125 
Q 46.046875 20.015625 46.78125 33.40625 
Q 43.953125 29.203125 39.59375 26.953125 
Q 35.25 24.703125 29.984375 24.703125 
Q 19.046875 24.703125 12.671875 31.3125 
Q 6.296875 37.9375 6.296875 49.421875 
Q 6.296875 60.640625 12.9375 67.421875 
Q 19.578125 74.21875 30.609375 74.21875 
Q 43.265625 74.21875 49.921875 64.515625 
Q 56.59375 54.828125 56.59375 36.375 
Q 56.59375 19.140625 48.40625 8.859375 
Q 40.234375 -1.421875 26.421875 -1.421875 
Q 22.703125 -1.421875 18.890625 -0.6875 
Q 15.09375 0.046875 10.984375 1.515625 
z
M 30.609375 32.421875 
Q 37.25 32.421875 41.125 36.953125 
Q 45.015625 41.5 45.015625 49.421875 
Q 45.015625 57.28125 41.125 61.84375 
Q 37.25 66.40625 30.609375 66.40625 
Q 23.96875 66.40625 20.09375 61.84375 
Q 16.21875 57.28125 16.21875 49.421875 
Q 16.21875 41.5 20.09375 36.953125 
Q 23.96875 32.421875 30.609375 32.421875 
z
" id="DejaVuSans-57"/>
     </defs>
     <g transform="translate(67.103125 122.465625)scale(0.1 -0.1)">
      <use xlink:href="#DejaVuSans-100"/>
      <use x="63.476562" xlink:href="#DejaVuSans-102"/>
      <use x="98.681641" xlink:href="#DejaVuSans-115"/>
      <use x="150.78125" xlink:href="#DejaVuSans-32"/>
      <use x="182.568359" xlink:href="#DejaVuSans-98"/>
      <use x="246.044922" xlink:href="#DejaVuSans-61"/>
      <use x="329.833984" xlink:href="#DejaVuSans-49"/>
      <use x="393.457031" xlink:href="#DejaVuSans-57"/>
     </g>
    </g>
    <g id="line2d_36">
     <path d="M 39.103125 133.64375 
L 59.103125 133.64375 
" style="fill:none;stroke:#7f7f7f;stroke-linecap:square;stroke-width:1.5;"/>
    </g>
    <g id="line2d_37"/>
    <g id="text_20">
     <!-- iddfs b=19 -->
     <g transform="translate(67.103125 137.14375)scale(0.1 -0.1)">
      <use xlink:href="#DejaVuSans-105"/>
      <use x="27.783203" xlink:href="#DejaVuSans-100"/>
      <use x="91.259766" xlink:href="#DejaVuSans-100"/>
      <use x="154.736328" xlink:href="#DejaVuSans-102"/>
      <use x="189.941406" xlink:href="#DejaVuSans-115"/>
      <use x="242.041016" xlink:href="#DejaVuSans-32"/>
      <use x="273.828125" xlink:href="#DejaVuSans-98"/>
      <use x="337.304688" xlink:href="#DejaVuSans-61"/>
      <use x="421.09375" xlink:href="#DejaVuSans-49"/>
      <use x="484.716797" xlink:href="#DejaVuSans-57"/>
     </g>
    </g>
    <g id="line2d_38">
     <path d="M 39.103125 148.321875 
L 59.103125 148.321875 
" style="fill:none;stroke:#bcbd22;stroke-linecap:square;stroke-width:1.5;"/>
    </g>
    <g id="line2d_39"/>
    <g id="text_21">
     <!-- dfs b=22 -->
     <g transform="translate(67.103125 151.821875)scale(0.1 -0.1)">
      <use xlink:href="#DejaVuSans-100"/>
      <use x="63.476562" xlink:href="#DejaVuSans-102"/>
      <use x="98.681641" xlink:href="#DejaVuSans-115"/>
      <use x="150.78125" xlink:href="#DejaVuSans-32"/>
      <use x="182.568359" xlink:href="#DejaVuSans-98"/>
      <use x="246.044922" xlink:href="#DejaVuSans-61"/>
      <use x="329.833984" xlink:href="#DejaVuSans-50"/>
      <use x="393.457031" xlink:href="#DejaVuSans-50"/>
     </g>
    </g>
    <g id="line2d_40">
     <path d="M 39.103125 163 
L 59.103125 163 
" style="fill:none;stroke:#17becf;stroke-linecap:square;stroke-width:1.5;"/>
    </g>
    <g id="line2d_41"/>
    <g id="text_22">
     <!-- iddfs b=22 -->
     <g transform="translate(67.103125 166.5)scale(0.1 -0.1)">
      <use xlink:href="#DejaVuSans-105"/>
      <use x="27.783203" xlink:href="#DejaVuSans-100"/>
      <use x="91.259766" xlink:href="#DejaVuSans-100"/>
      <use x="154.736328" xlink:href="#DejaVuSans-102"/>
      <use x="189.941406" xlink:href="#DejaVuSans-115"/>
      <use x="242.041016" xlink:href="#DejaVuSans-32"/>
      <use x="273.828125" xlink:href="#DejaVuSans-98"/>
      <use x="337.304688" xlink:href="#DejaVuSans-61"/>
      <use x="421.09375" xlink:href="#DejaVuSans-50"/>
      <use x="484.716797" xlink:href="#DejaVuSans-50"/>
     </g>
    </g>
   </g>
  </g>
  <g id="axes_2">
   <g id="patch_8">
    <path d="M 212.721307 235.238437 
L 364.903125 235.238437 
L 364.903125 17.798437 
L 212.721307 17.798437 
z
" style="fill:#ffffff;"/>
   </g>
   <g id="matplotlib.axis_3">
    <g id="xtick_5">
     <g id="line2d_42">
      <g>
       <use style="stroke:#000000;stroke-width:0.8;" x="242.696513" xlink:href="#m2b0b206ce0" y="235.238437"/>
      </g>
     </g>
     <g id="text_23">
      <!-- 4 -->
      <g transform="translate(239.515263 249.836875)scale(0.1 -0.1)">
       <use xlink:href="#DejaVuSans-52"/>
      </g>
     </g>
    </g>
    <g id="xtick_6">
     <g id="line2d_43">
      <g>
       <use style="stroke:#000000;stroke-width:0.8;" x="288.812216" xlink:href="#m2b0b206ce0" y="235.238437"/>
      </g>
     </g>
     <g id="text_24">
      <!-- 6 -->
      <g transform="translate(285.630966 249.836875)scale(0.1 -0.1)">
       <use xlink:href="#DejaVuSans-54"/>
      </g>
     </g>
    </g>
    <g id="xtick_7">
     <g id="line2d_44">
      <g>
       <use style="stroke:#000000;stroke-width:0.8;" x="334.927918" xlink:href="#m2b0b206ce0" y="235.238437"/>
      </g>
     </g>
     <g id="text_25">
      <!-- 8 -->
      <g transform="translate(331.746668 249.836875)scale(0.1 -0.1)">
       <use xlink:href="#DejaVuSans-56"/>
      </g>
     </g>
    </g>
   </g>
   <g id="matplotlib.axis_4">
    <g id="ytick_8">
     <g id="line2d_45">
      <g>
       <use style="stroke:#000000;stroke-width:0.8;" x="212.721307" xlink:href="#meb014e2b87" y="225.354801"/>
      </g>
     </g>
     <g id="text_26">
      <!-- 1.00 -->
      <g transform="translate(183.455682 229.15402)scale(0.1 -0.1)">
       <use xlink:href="#DejaVuSans-49"/>
       <use x="63.623047" xlink:href="#DejaVuSans-46"/>
       <use x="95.410156" xlink:href="#DejaVuSans-48"/>
       <use x="159.033203" xlink:href="#DejaVuSans-48"/>
      </g>
     </g>
    </g>
    <g id="ytick_9">
     <g id="line2d_46">
      <g>
       <use style="stroke:#000000;stroke-width:0.8;" x="212.721307" xlink:href="#meb014e2b87" y="183.218656"/>
      </g>
     </g>
     <g id="text_27">
      <!-- 1.05 -->
      <defs>
       <path d="M 10.796875 72.90625 
L 49.515625 72.90625 
L 49.515625 64.59375 
L 19.828125 64.59375 
L 19.828125 46.734375 
Q 21.96875 47.46875 24.109375 47.828125 
Q 26.265625 48.1875 28.421875 48.1875 
Q 40.625 48.1875 47.75 41.5 
Q 54.890625 34.8125 54.890625 23.390625 
Q 54.890625 11.625 47.5625 5.09375 
Q 40.234375 -1.421875 26.90625 -1.421875 
Q 22.3125 -1.421875 17.546875 -0.640625 
Q 12.796875 0.140625 7.71875 1.703125 
L 7.71875 11.625 
Q 12.109375 9.234375 16.796875 8.0625 
Q 21.484375 6.890625 26.703125 6.890625 
Q 35.15625 6.890625 40.078125 11.328125 
Q 45.015625 15.765625 45.015625 23.390625 
Q 45.015625 31 40.078125 35.4375 
Q 35.15625 39.890625 26.703125 39.890625 
Q 22.75 39.890625 18.8125 39.015625 
Q 14.890625 38.140625 10.796875 36.28125 
z
" id="DejaVuSans-53"/>
      </defs>
      <g transform="translate(183.455682 187.017875)scale(0.1 -0.1)">
       <use xlink:href="#DejaVuSans-49"/>
       <use x="63.623047" xlink:href="#DejaVuSans-46"/>
       <use x="95.410156" xlink:href="#DejaVuSans-48"/>
       <use x="159.033203" xlink:href="#DejaVuSans-53"/>
      </g>
     </g>
    </g>
    <g id="ytick_10">
     <g id="line2d_47">
      <g>
       <use style="stroke:#000000;stroke-width:0.8;" x="212.721307" xlink:href="#meb014e2b87" y="141.082511"/>
      </g>
     </g>
     <g id="text_28">
      <!-- 1.10 -->
      <g transform="translate(183.455682 144.88173)scale(0.1 -0.1)">
       <use xlink:href="#DejaVuSans-49"/>
       <use x="63.623047" xlink:href="#DejaVuSans-46"/>
       <use x="95.410156" xlink:href="#DejaVuSans-49"/>
       <use x="159.033203" xlink:href="#DejaVuSans-48"/>
      </g>
     </g>
    </g>
    <g id="ytick_11">
     <g id="line2d_48">
      <g>
       <use style="stroke:#000000;stroke-width:0.8;" x="212.721307" xlink:href="#meb014e2b87" y="98.946366"/>
      </g>
     </g>
     <g id="text_29">
      <!-- 1.15 -->
      <g transform="translate(183.455682 102.745585)scale(0.1 -0.1)">
       <use xlink:href="#DejaVuSans-49"/>
       <use x="63.623047" xlink:href="#DejaVuSans-46"/>
       <use x="95.410156" xlink:href="#DejaVuSans-49"/>
       <use x="159.033203" xlink:href="#DejaVuSans-53"/>
      </g>
     </g>
    </g>
    <g id="ytick_12">
     <g id="line2d_49">
      <g>
       <use style="stroke:#000000;stroke-width:0.8;" x="212.721307" xlink:href="#meb014e2b87" y="56.810221"/>
      </g>
     </g>
     <g id="text_30">
      <!-- 1.20 -->
      <g transform="translate(183.455682 60.60944)scale(0.1 -0.1)">
       <use xlink:href="#DejaVuSans-49"/>
       <use x="63.623047" xlink:href="#DejaVuSans-46"/>
       <use x="95.410156" xlink:href="#DejaVuSans-50"/>
       <use x="159.033203" xlink:href="#DejaVuSans-48"/>
      </g>
     </g>
    </g>
   </g>
   <g id="line2d_50">
    <path clip-path="url(#p00525069e8)" d="M 219.638662 225.354801 
L 242.696513 72.132455 
L 265.754365 35.552346 
L 288.812216 28.896447 
L 311.870067 27.852287 
L 334.927918 27.702374 
L 357.98577 27.682074 
" style="fill:none;stroke:#1f77b4;stroke-linecap:square;stroke-width:1.5;"/>
   </g>
   <g id="line2d_51">
    <path clip-path="url(#p00525069e8)" d="M 219.638662 225.354801 
L 242.696513 104.965815 
L 265.754365 82.598463 
L 288.812216 79.471677 
L 311.870067 79.095082 
L 334.927918 79.053543 
L 357.98577 79.04922 
" style="fill:none;stroke:#ff7f0e;stroke-linecap:square;stroke-width:1.5;"/>
   </g>
   <g id="line2d_52">
    <path clip-path="url(#p00525069e8)" d="M 219.638662 225.354801 
L 242.696513 126.21093 
L 265.754365 111.139609 
L 288.812216 109.429769 
L 311.870067 109.262654 
L 334.927918 109.247689 
L 357.98577 109.246424 
" style="fill:none;stroke:#2ca02c;stroke-linecap:square;stroke-width:1.5;"/>
   </g>
   <g id="line2d_53">
    <path clip-path="url(#p00525069e8)" d="M 219.638662 225.354801 
L 242.696513 141.082511 
L 265.754365 130.244342 
L 288.812216 129.209896 
L 311.870067 129.124828 
L 334.927918 129.118416 
L 357.98577 129.11796 
" style="fill:none;stroke:#d62728;stroke-linecap:square;stroke-width:1.5;"/>
   </g>
   <g id="line2d_54">
    <path clip-path="url(#p00525069e8)" d="M 219.638662 225.354801 
L 242.696513 152.074549 
L 265.754365 143.908209 
L 288.812216 143.235591 
L 311.870067 143.18785 
L 334.927918 143.184744 
L 357.98577 143.184553 
" style="fill:none;stroke:#9467bd;stroke-linecap:square;stroke-width:1.5;"/>
   </g>
   <g id="patch_9">
    <path d="M 212.721307 235.238438 
L 212.721307 17.798438 
" style="fill:none;stroke:#000000;stroke-linecap:square;stroke-linejoin:miter;stroke-width:0.8;"/>
   </g>
   <g id="patch_10">
    <path d="M 364.903125 235.238438 
L 364.903125 17.798438 
" style="fill:none;stroke:#000000;stroke-linecap:square;stroke-linejoin:miter;stroke-width:0.8;"/>
   </g>
   <g id="patch_11">
    <path d="M 212.721307 235.238437 
L 364.903125 235.238437 
" style="fill:none;stroke:#000000;stroke-linecap:square;stroke-linejoin:miter;stroke-width:0.8;"/>
   </g>
   <g id="patch_12">
    <path d="M 212.721307 17.798437 
L 364.903125 17.798437 
" style="fill:none;stroke:#000000;stroke-linecap:square;stroke-linejoin:miter;stroke-width:0.8;"/>
   </g>
   <g id="legend_2">
    <g id="patch_13">
     <path d="M 252.620312 230.238437 
L 357.903125 230.238437 
Q 359.903125 230.238437 359.903125 228.238437 
L 359.903125 155.847812 
Q 359.903125 153.847812 357.903125 153.847812 
L 252.620312 153.847812 
Q 250.620312 153.847812 250.620312 155.847812 
L 250.620312 228.238437 
Q 250.620312 230.238437 252.620312 230.238437 
z
" style="fill:#ffffff;opacity:0.8;stroke:#cccccc;stroke-linejoin:miter;"/>
    </g>
    <g id="line2d_55">
     <path d="M 254.620312 161.94625 
L 274.620312 161.94625 
" style="fill:none;stroke:#1f77b4;stroke-linecap:square;stroke-width:1.5;"/>
    </g>
    <g id="line2d_56"/>
    <g id="text_31">
     <!-- dfs/iddfs b=10 -->
     <defs>
      <path d="M 25.390625 72.90625 
L 33.6875 72.90625 
L 8.296875 -9.28125 
L 0 -9.28125 
z
" id="DejaVuSans-47"/>
     </defs>
     <g transform="translate(282.620312 165.44625)scale(0.1 -0.1)">
      <use xlink:href="#DejaVuSans-100"/>
      <use x="63.476562" xlink:href="#DejaVuSans-102"/>
      <use x="98.681641" xlink:href="#DejaVuSans-115"/>
      <use x="150.78125" xlink:href="#DejaVuSans-47"/>
      <use x="184.472656" xlink:href="#DejaVuSans-105"/>
      <use x="212.255859" xlink:href="#DejaVuSans-100"/>
      <use x="275.732422" xlink:href="#DejaVuSans-100"/>
      <use x="339.208984" xlink:href="#DejaVuSans-102"/>
      <use x="374.414062" xlink:href="#DejaVuSans-115"/>
      <use x="426.513672" xlink:href="#DejaVuSans-32"/>
      <use x="458.300781" xlink:href="#DejaVuSans-98"/>
      <use x="521.777344" xlink:href="#DejaVuSans-61"/>
      <use x="605.566406" xlink:href="#DejaVuSans-49"/>
      <use x="669.189453" xlink:href="#DejaVuSans-48"/>
     </g>
    </g>
    <g id="line2d_57">
     <path d="M 254.620312 176.624375 
L 274.620312 176.624375 
" style="fill:none;stroke:#ff7f0e;stroke-linecap:square;stroke-width:1.5;"/>
    </g>
    <g id="line2d_58"/>
    <g id="text_32">
     <!-- dfs/iddfs b=13 -->
     <g transform="translate(282.620312 180.124375)scale(0.1 -0.1)">
      <use xlink:href="#DejaVuSans-100"/>
      <use x="63.476562" xlink:href="#DejaVuSans-102"/>
      <use x="98.681641" xlink:href="#DejaVuSans-115"/>
      <use x="150.78125" xlink:href="#DejaVuSans-47"/>
      <use x="184.472656" xlink:href="#DejaVuSans-105"/>
      <use x="212.255859" xlink:href="#DejaVuSans-100"/>
      <use x="275.732422" xlink:href="#DejaVuSans-100"/>
      <use x="339.208984" xlink:href="#DejaVuSans-102"/>
      <use x="374.414062" xlink:href="#DejaVuSans-115"/>
      <use x="426.513672" xlink:href="#DejaVuSans-32"/>
      <use x="458.300781" xlink:href="#DejaVuSans-98"/>
      <use x="521.777344" xlink:href="#DejaVuSans-61"/>
      <use x="605.566406" xlink:href="#DejaVuSans-49"/>
      <use x="669.189453" xlink:href="#DejaVuSans-51"/>
     </g>
    </g>
    <g id="line2d_59">
     <path d="M 254.620312 191.3025 
L 274.620312 191.3025 
" style="fill:none;stroke:#2ca02c;stroke-linecap:square;stroke-width:1.5;"/>
    </g>
    <g id="line2d_60"/>
    <g id="text_33">
     <!-- dfs/iddfs b=16 -->
     <g transform="translate(282.620312 194.8025)scale(0.1 -0.1)">
      <use xlink:href="#DejaVuSans-100"/>
      <use x="63.476562" xlink:href="#DejaVuSans-102"/>
      <use x="98.681641" xlink:href="#DejaVuSans-115"/>
      <use x="150.78125" xlink:href="#DejaVuSans-47"/>
      <use x="184.472656" xlink:href="#DejaVuSans-105"/>
      <use x="212.255859" xlink:href="#DejaVuSans-100"/>
      <use x="275.732422" xlink:href="#DejaVuSans-100"/>
      <use x="339.208984" xlink:href="#DejaVuSans-102"/>
      <use x="374.414062" xlink:href="#DejaVuSans-115"/>
      <use x="426.513672" xlink:href="#DejaVuSans-32"/>
      <use x="458.300781" xlink:href="#DejaVuSans-98"/>
      <use x="521.777344" xlink:href="#DejaVuSans-61"/>
      <use x="605.566406" xlink:href="#DejaVuSans-49"/>
      <use x="669.189453" xlink:href="#DejaVuSans-54"/>
     </g>
    </g>
    <g id="line2d_61">
     <path d="M 254.620312 205.980625 
L 274.620312 205.980625 
" style="fill:none;stroke:#d62728;stroke-linecap:square;stroke-width:1.5;"/>
    </g>
    <g id="line2d_62"/>
    <g id="text_34">
     <!-- dfs/iddfs b=19 -->
     <g transform="translate(282.620312 209.480625)scale(0.1 -0.1)">
      <use xlink:href="#DejaVuSans-100"/>
      <use x="63.476562" xlink:href="#DejaVuSans-102"/>
      <use x="98.681641" xlink:href="#DejaVuSans-115"/>
      <use x="150.78125" xlink:href="#DejaVuSans-47"/>
      <use x="184.472656" xlink:href="#DejaVuSans-105"/>
      <use x="212.255859" xlink:href="#DejaVuSans-100"/>
      <use x="275.732422" xlink:href="#DejaVuSans-100"/>
      <use x="339.208984" xlink:href="#DejaVuSans-102"/>
      <use x="374.414062" xlink:href="#DejaVuSans-115"/>
      <use x="426.513672" xlink:href="#DejaVuSans-32"/>
      <use x="458.300781" xlink:href="#DejaVuSans-98"/>
      <use x="521.777344" xlink:href="#DejaVuSans-61"/>
      <use x="605.566406" xlink:href="#DejaVuSans-49"/>
      <use x="669.189453" xlink:href="#DejaVuSans-57"/>
     </g>
    </g>
    <g id="line2d_63">
     <path d="M 254.620312 220.65875 
L 274.620312 220.65875 
" style="fill:none;stroke:#9467bd;stroke-linecap:square;stroke-width:1.5;"/>
    </g>
    <g id="line2d_64"/>
    <g id="text_35">
     <!-- dfs/iddfs b=22 -->
     <g transform="translate(282.620312 224.15875)scale(0.1 -0.1)">
      <use xlink:href="#DejaVuSans-100"/>
      <use x="63.476562" xlink:href="#DejaVuSans-102"/>
      <use x="98.681641" xlink:href="#DejaVuSans-115"/>
      <use x="150.78125" xlink:href="#DejaVuSans-47"/>
      <use x="184.472656" xlink:href="#DejaVuSans-105"/>
      <use x="212.255859" xlink:href="#DejaVuSans-100"/>
      <use x="275.732422" xlink:href="#DejaVuSans-100"/>
      <use x="339.208984" xlink:href="#DejaVuSans-102"/>
      <use x="374.414062" xlink:href="#DejaVuSans-115"/>
      <use x="426.513672" xlink:href="#DejaVuSans-32"/>
      <use x="458.300781" xlink:href="#DejaVuSans-98"/>
      <use x="521.777344" xlink:href="#DejaVuSans-61"/>
      <use x="605.566406" xlink:href="#DejaVuSans-50"/>
      <use x="669.189453" xlink:href="#DejaVuSans-50"/>
     </g>
    </g>
   </g>
  </g>
 </g>
 <defs>
  <clipPath id="p33b5537d1e">
   <rect height="217.44" width="152.181818" x="30.103125" y="17.798437"/>
  </clipPath>
  <clipPath id="p00525069e8">
   <rect height="217.44" width="152.181818" x="212.721307" y="17.798437"/>
  </clipPath>
 </defs>
</svg>
