<?xml version="1.0" encoding="utf-8" standalone="no"?>
<!DOCTYPE svg PUBLIC "-//W3C//DTD SVG 1.1//EN"
  "http://www.w3.org/Graphics/SVG/1.1/DTD/svg11.dtd">
<svg xmlns:xlink="http://www.w3.org/1999/xlink" width="394.423125pt" height="307.788562pt" viewBox="0 0 394.423125 307.788562" xmlns="http://www.w3.org/2000/svg" version="1.1">
 <metadata>
  <rdf:RDF xmlns:dc="http://purl.org/dc/elements/1.1/" xmlns:cc="http://creativecommons.org/ns#" xmlns:rdf="http://www.w3.org/1999/02/22-rdf-syntax-ns#">
   <cc:Work>
    <dc:type rdf:resource="http://purl.org/dc/dcmitype/StillImage"/>
    <dc:date>2023-12-17T06:11:44.207134</dc:date>
    <dc:format>image/svg+xml</dc:format>
    <dc:creator>
     <cc:Agent>
      <dc:title>Matplotlib v3.7.1, https://matplotlib.org/</dc:title>
     </cc:Agent>
    </dc:creator>
   </cc:Work>
  </rdf:RDF>
 </metadata>
 <defs>
  <style type="text/css">*{stroke-linejoin: round; stroke-linecap: butt}</style>
 </defs>
 <g id="figure_1">
  <g id="patch_1">
   <path d="M 0 307.788562 
L 394.423125 307.788562 
L 394.423125 0 
L 0 0 
z
" style="fill: #ffffff"/>
  </g>
  <g id="axes_1">
   <g id="patch_2">
    <path d="M 30.103125 283.910437 
L 192.430398 283.910437 
L 192.430398 17.798437 
L 30.103125 17.798437 
z
" style="fill: #ffffff"/>
   </g>
   <g id="matplotlib.axis_1">
    <g id="xtick_1">
     <g id="line2d_1">
      <defs>
       <path id="m98f5128f43" d="M 0 0 
L 0 3.5 
" style="stroke: #000000; stroke-width: 0.8"/>
      </defs>
      <g>
       <use xlink:href="#m98f5128f43" x="37.481637" y="283.910437" style="stroke: #000000; stroke-width: 0.8"/>
      </g>
     </g>
     <g id="text_1">
      <!-- 2 -->
      <g transform="translate(34.300387 298.508875) scale(0.1 -0.1)">
       <defs>
        <path id="DejaVuSans-32" d="M 1228 531 
L 3431 531 
L 3431 0 
L 469 0 
L 469 531 
Q 828 903 1448 1529 
Q 2069 2156 2228 2338 
Q 2531 2678 2651 2914 
Q 2772 3150 2772 3378 
Q 2772 3750 2511 3984 
Q 2250 4219 1831 4219 
Q 1534 4219 1204 4116 
Q 875 4013 500 3803 
L 500 4441 
Q 881 4594 1212 4672 
Q 1544 4750 1819 4750 
Q 2544 4750 2975 4387 
Q 3406 4025 3406 3419 
Q 3406 3131 3298 2873 
Q 3191 2616 2906 2266 
Q 2828 2175 2409 1742 
Q 1991 1309 1228 531 
z
" transform="scale(0.015625)"/>
       </defs>
       <use xlink:href="#DejaVuSans-32"/>
      </g>
     </g>
    </g>
    <g id="xtick_2">
     <g id="line2d_2">
      <g>
       <use xlink:href="#m98f5128f43" x="79.644565" y="283.910437" style="stroke: #000000; stroke-width: 0.8"/>
      </g>
     </g>
     <g id="text_2">
      <!-- 4 -->
      <g transform="translate(76.463315 298.508875) scale(0.1 -0.1)">
       <defs>
        <path id="DejaVuSans-34" d="M 2419 4116 
L 825 1625 
L 2419 1625 
L 2419 4116 
z
M 2253 4666 
L 3047 4666 
L 3047 1625 
L 3713 1625 
L 3713 1100 
L 3047 1100 
L 3047 0 
L 2419 0 
L 2419 1100 
L 313 1100 
L 313 1709 
L 2253 4666 
z
" transform="scale(0.015625)"/>
       </defs>
       <use xlink:href="#DejaVuSans-34"/>
      </g>
     </g>
    </g>
    <g id="xtick_3">
     <g id="line2d_3">
      <g>
       <use xlink:href="#m98f5128f43" x="121.807493" y="283.910437" style="stroke: #000000; stroke-width: 0.8"/>
      </g>
     </g>
     <g id="text_3">
      <!-- 6 -->
      <g transform="translate(118.626243 298.508875) scale(0.1 -0.1)">
       <defs>
        <path id="DejaVuSans-36" d="M 2113 2584 
Q 1688 2584 1439 2293 
Q 1191 2003 1191 1497 
Q 1191 994 1439 701 
Q 1688 409 2113 409 
Q 2538 409 2786 701 
Q 3034 994 3034 1497 
Q 3034 2003 2786 2293 
Q 2538 2584 2113 2584 
z
M 3366 4563 
L 3366 3988 
Q 3128 4100 2886 4159 
Q 2644 4219 2406 4219 
Q 1781 4219 1451 3797 
Q 1122 3375 1075 2522 
Q 1259 2794 1537 2939 
Q 1816 3084 2150 3084 
Q 2853 3084 3261 2657 
Q 3669 2231 3669 1497 
Q 3669 778 3244 343 
Q 2819 -91 2113 -91 
Q 1303 -91 875 529 
Q 447 1150 447 2328 
Q 447 3434 972 4092 
Q 1497 4750 2381 4750 
Q 2619 4750 2861 4703 
Q 3103 4656 3366 4563 
z
" transform="scale(0.015625)"/>
       </defs>
       <use xlink:href="#DejaVuSans-36"/>
      </g>
     </g>
    </g>
    <g id="xtick_4">
     <g id="line2d_4">
      <g>
       <use xlink:href="#m98f5128f43" x="163.970421" y="283.910437" style="stroke: #000000; stroke-width: 0.8"/>
      </g>
     </g>
     <g id="text_4">
      <!-- 8 -->
      <g transform="translate(160.789171 298.508875) scale(0.1 -0.1)">
       <defs>
        <path id="DejaVuSans-38" d="M 2034 2216 
Q 1584 2216 1326 1975 
Q 1069 1734 1069 1313 
Q 1069 891 1326 650 
Q 1584 409 2034 409 
Q 2484 409 2743 651 
Q 3003 894 3003 1313 
Q 3003 1734 2745 1975 
Q 2488 2216 2034 2216 
z
M 1403 2484 
Q 997 2584 770 2862 
Q 544 3141 544 3541 
Q 544 4100 942 4425 
Q 1341 4750 2034 4750 
Q 2731 4750 3128 4425 
Q 3525 4100 3525 3541 
Q 3525 3141 3298 2862 
Q 3072 2584 2669 2484 
Q 3125 2378 3379 2068 
Q 3634 1759 3634 1313 
Q 3634 634 3220 271 
Q 2806 -91 2034 -91 
Q 1263 -91 848 271 
Q 434 634 434 1313 
Q 434 1759 690 2068 
Q 947 2378 1403 2484 
z
M 1172 3481 
Q 1172 3119 1398 2916 
Q 1625 2713 2034 2713 
Q 2441 2713 2670 2916 
Q 2900 3119 2900 3481 
Q 2900 3844 2670 4047 
Q 2441 4250 2034 4250 
Q 1625 4250 1398 4047 
Q 1172 3844 1172 3481 
z
" transform="scale(0.015625)"/>
       </defs>
       <use xlink:href="#DejaVuSans-38"/>
      </g>
     </g>
    </g>
   </g>
   <g id="matplotlib.axis_2">
    <g id="ytick_1">
     <g id="line2d_5">
      <defs>
       <path id="m0ceebd92df" d="M 0 0 
L -3.5 0 
" style="stroke: #000000; stroke-width: 0.8"/>
      </defs>
      <g>
       <use xlink:href="#m0ceebd92df" x="30.103125" y="271.814437" style="stroke: #000000; stroke-width: 0.8"/>
      </g>
     </g>
     <g id="text_5">
      <!-- 0.0 -->
      <g transform="translate(7.2 275.613656) scale(0.1 -0.1)">
       <defs>
        <path id="DejaVuSans-30" d="M 2034 4250 
Q 1547 4250 1301 3770 
Q 1056 3291 1056 2328 
Q 1056 1369 1301 889 
Q 1547 409 2034 409 
Q 2525 409 2770 889 
Q 3016 1369 3016 2328 
Q 3016 3291 2770 3770 
Q 2525 4250 2034 4250 
z
M 2034 4750 
Q 2819 4750 3233 4129 
Q 3647 3509 3647 2328 
Q 3647 1150 3233 529 
Q 2819 -91 2034 -91 
Q 1250 -91 836 529 
Q 422 1150 422 2328 
Q 422 3509 836 4129 
Q 1250 4750 2034 4750 
z
" transform="scale(0.015625)"/>
        <path id="DejaVuSans-2e" d="M 684 794 
L 1344 794 
L 1344 0 
L 684 0 
L 684 794 
z
" transform="scale(0.015625)"/>
       </defs>
       <use xlink:href="#DejaVuSans-30"/>
       <use xlink:href="#DejaVuSans-2e" x="63.623047"/>
       <use xlink:href="#DejaVuSans-30" x="95.410156"/>
      </g>
     </g>
    </g>
    <g id="ytick_2">
     <g id="line2d_6">
      <g>
       <use xlink:href="#m0ceebd92df" x="30.103125" y="232.931514" style="stroke: #000000; stroke-width: 0.8"/>
      </g>
     </g>
     <g id="text_6">
      <!-- 0.2 -->
      <g transform="translate(7.2 236.730732) scale(0.1 -0.1)">
       <use xlink:href="#DejaVuSans-30"/>
       <use xlink:href="#DejaVuSans-2e" x="63.623047"/>
       <use xlink:href="#DejaVuSans-32" x="95.410156"/>
      </g>
     </g>
    </g>
    <g id="ytick_3">
     <g id="line2d_7">
      <g>
       <use xlink:href="#m0ceebd92df" x="30.103125" y="194.04859" style="stroke: #000000; stroke-width: 0.8"/>
      </g>
     </g>
     <g id="text_7">
      <!-- 0.4 -->
      <g transform="translate(7.2 197.847809) scale(0.1 -0.1)">
       <use xlink:href="#DejaVuSans-30"/>
       <use xlink:href="#DejaVuSans-2e" x="63.623047"/>
       <use xlink:href="#DejaVuSans-34" x="95.410156"/>
      </g>
     </g>
    </g>
    <g id="ytick_4">
     <g id="line2d_8">
      <g>
       <use xlink:href="#m0ceebd92df" x="30.103125" y="155.165666" style="stroke: #000000; stroke-width: 0.8"/>
      </g>
     </g>
     <g id="text_8">
      <!-- 0.6 -->
      <g transform="translate(7.2 158.964885) scale(0.1 -0.1)">
       <use xlink:href="#DejaVuSans-30"/>
       <use xlink:href="#DejaVuSans-2e" x="63.623047"/>
       <use xlink:href="#DejaVuSans-36" x="95.410156"/>
      </g>
     </g>
    </g>
    <g id="ytick_5">
     <g id="line2d_9">
      <g>
       <use xlink:href="#m0ceebd92df" x="30.103125" y="116.282742" style="stroke: #000000; stroke-width: 0.8"/>
      </g>
     </g>
     <g id="text_9">
      <!-- 0.8 -->
      <g transform="translate(7.2 120.081961) scale(0.1 -0.1)">
       <use xlink:href="#DejaVuSans-30"/>
       <use xlink:href="#DejaVuSans-2e" x="63.623047"/>
       <use xlink:href="#DejaVuSans-38" x="95.410156"/>
      </g>
     </g>
    </g>
    <g id="ytick_6">
     <g id="line2d_10">
      <g>
       <use xlink:href="#m0ceebd92df" x="30.103125" y="77.399819" style="stroke: #000000; stroke-width: 0.8"/>
      </g>
     </g>
     <g id="text_10">
      <!-- 1.0 -->
      <g transform="translate(7.2 81.199037) scale(0.1 -0.1)">
       <defs>
        <path id="DejaVuSans-31" d="M 794 531 
L 1825 531 
L 1825 4091 
L 703 3866 
L 703 4441 
L 1819 4666 
L 2450 4666 
L 2450 531 
L 3481 531 
L 3481 0 
L 794 0 
L 794 531 
z
" transform="scale(0.015625)"/>
       </defs>
       <use xlink:href="#DejaVuSans-31"/>
       <use xlink:href="#DejaVuSans-2e" x="63.623047"/>
       <use xlink:href="#DejaVuSans-30" x="95.410156"/>
      </g>
     </g>
    </g>
    <g id="ytick_7">
     <g id="line2d_11">
      <g>
       <use xlink:href="#m0ceebd92df" x="30.103125" y="38.516895" style="stroke: #000000; stroke-width: 0.8"/>
      </g>
     </g>
     <g id="text_11">
      <!-- 1.2 -->
      <g transform="translate(7.2 42.316114) scale(0.1 -0.1)">
       <use xlink:href="#DejaVuSans-31"/>
       <use xlink:href="#DejaVuSans-2e" x="63.623047"/>
       <use xlink:href="#DejaVuSans-32" x="95.410156"/>
      </g>
     </g>
    </g>
    <g id="text_12">
     <!-- 1e8 -->
     <g transform="translate(30.103125 14.798437) scale(0.1 -0.1)">
      <defs>
       <path id="DejaVuSans-65" d="M 3597 1894 
L 3597 1613 
L 953 1613 
Q 991 1019 1311 708 
Q 1631 397 2203 397 
Q 2534 397 2845 478 
Q 3156 559 3463 722 
L 3463 178 
Q 3153 47 2828 -22 
Q 2503 -91 2169 -91 
Q 1331 -91 842 396 
Q 353 884 353 1716 
Q 353 2575 817 3079 
Q 1281 3584 2069 3584 
Q 2775 3584 3186 3129 
Q 3597 2675 3597 1894 
z
M 3022 2063 
Q 3016 2534 2758 2815 
Q 2500 3097 2075 3097 
Q 1594 3097 1305 2825 
Q 1016 2553 972 2059 
L 3022 2063 
z
" transform="scale(0.015625)"/>
      </defs>
      <use xlink:href="#DejaVuSans-31"/>
      <use xlink:href="#DejaVuSans-65" x="63.623047"/>
      <use xlink:href="#DejaVuSans-38" x="125.146484"/>
     </g>
    </g>
   </g>
   <g id="line2d_12">
    <path d="M 37.481637 271.814437 
L 58.563101 271.814436 
L 79.644565 271.814416 
L 100.726029 271.814222 
L 121.807493 271.812278 
L 142.888957 271.792836 
L 163.970421 271.598421 
L 185.051885 269.654275 
" clip-path="url(#pdd0cf12f6b)" style="fill: none; stroke: #1f77b4; stroke-width: 1.5; stroke-linecap: square"/>
   </g>
   <g id="line2d_13">
    <path d="M 37.481637 271.814437 
L 58.563101 271.814436 
L 79.644565 271.814414 
L 100.726029 271.814198 
L 121.807493 271.812038 
L 142.888957 271.790437 
L 163.970421 271.574421 
L 185.051885 269.414259 
" clip-path="url(#pdd0cf12f6b)" style="fill: none; stroke: #ff7f0e; stroke-width: 1.5; stroke-linecap: square"/>
   </g>
   <g id="line2d_14">
    <path d="M 37.481637 271.814437 
L 58.563101 271.814436 
L 79.644565 271.81441 
L 100.726029 271.814082 
L 121.807493 271.80981 
L 142.888957 271.754284 
L 163.970421 271.032436 
L 185.051885 261.648413 
" clip-path="url(#pdd0cf12f6b)" style="fill: none; stroke: #2ca02c; stroke-width: 1.5; stroke-linecap: square"/>
   </g>
   <g id="line2d_15">
    <path d="M 37.481637 271.814437 
L 58.563101 271.814436 
L 79.644565 271.814408 
L 100.726029 271.814053 
L 121.807493 271.809425 
L 142.888957 271.749272 
L 163.970421 270.96727 
L 185.051885 260.801246 
" clip-path="url(#pdd0cf12f6b)" style="fill: none; stroke: #d62728; stroke-width: 1.5; stroke-linecap: square"/>
   </g>
   <g id="line2d_16">
    <path d="M 37.481637 271.814437 
L 58.563101 271.814436 
L 79.644565 271.814404 
L 100.726029 271.813907 
L 121.807493 271.805944 
L 142.888957 271.678532 
L 163.970421 269.639947 
L 185.051885 237.022586 
" clip-path="url(#pdd0cf12f6b)" style="fill: none; stroke: #9467bd; stroke-width: 1.5; stroke-linecap: square"/>
   </g>
   <g id="line2d_17">
    <path d="M 37.481637 271.814437 
L 58.563101 271.814436 
L 79.644565 271.814403 
L 100.726029 271.813872 
L 121.807493 271.805378 
L 142.888957 271.669472 
L 163.970421 269.494982 
L 185.051885 234.703131 
" clip-path="url(#pdd0cf12f6b)" style="fill: none; stroke: #8c564b; stroke-width: 1.5; stroke-linecap: square"/>
   </g>
   <g id="line2d_18">
    <path d="M 37.481637 271.814437 
L 58.563101 271.814436 
L 79.644565 271.814399 
L 100.726029 271.813697 
L 121.807493 271.800362 
L 142.888957 271.546999 
L 163.970421 266.7331 
L 185.051885 175.26903 
" clip-path="url(#pdd0cf12f6b)" style="fill: none; stroke: #e377c2; stroke-width: 1.5; stroke-linecap: square"/>
   </g>
   <g id="line2d_19">
    <path d="M 37.481637 271.814437 
L 58.563101 271.814436 
L 79.644565 271.814397 
L 100.726029 271.813656 
L 121.807493 271.79958 
L 142.888957 271.532142 
L 163.970421 266.450805 
L 185.051885 169.905397 
" clip-path="url(#pdd0cf12f6b)" style="fill: none; stroke: #7f7f7f; stroke-width: 1.5; stroke-linecap: square"/>
   </g>
   <g id="line2d_20">
    <path d="M 37.481637 271.814437 
L 58.563101 271.814436 
L 79.644565 271.814393 
L 100.726029 271.813452 
L 121.807493 271.792751 
L 142.888957 271.337323 
L 163.970421 261.317909 
L 185.051885 40.890801 
" clip-path="url(#pdd0cf12f6b)" style="fill: none; stroke: #bcbd22; stroke-width: 1.5; stroke-linecap: square"/>
   </g>
   <g id="line2d_21">
    <path d="M 37.481637 271.814437 
L 58.563101 271.814436 
L 79.644565 271.814391 
L 100.726029 271.813405 
L 121.807493 271.791718 
L 142.888957 271.314603 
L 163.970421 260.818074 
L 185.051885 29.894437 
" clip-path="url(#pdd0cf12f6b)" style="fill: none; stroke: #17becf; stroke-width: 1.5; stroke-linecap: square"/>
   </g>
   <g id="patch_3">
    <path d="M 30.103125 283.910437 
L 30.103125 17.798437 
" style="fill: none; stroke: #000000; stroke-width: 0.8; stroke-linejoin: miter; stroke-linecap: square"/>
   </g>
   <g id="patch_4">
    <path d="M 192.430398 283.910437 
L 192.430398 17.798437 
" style="fill: none; stroke: #000000; stroke-width: 0.8; stroke-linejoin: miter; stroke-linecap: square"/>
   </g>
   <g id="patch_5">
    <path d="M 30.103125 283.910437 
L 192.430398 283.910437 
" style="fill: none; stroke: #000000; stroke-width: 0.8; stroke-linejoin: miter; stroke-linecap: square"/>
   </g>
   <g id="patch_6">
    <path d="M 30.103125 17.798437 
L 192.430398 17.798437 
" style="fill: none; stroke: #000000; stroke-width: 0.8; stroke-linejoin: miter; stroke-linecap: square"/>
   </g>
   <g id="legend_1">
    <g id="patch_7">
     <path d="M 37.103125 172.579687 
L 123.939063 172.579687 
Q 125.939063 172.579687 125.939063 170.579687 
L 125.939063 24.798437 
Q 125.939063 22.798437 123.939063 22.798437 
L 37.103125 22.798437 
Q 35.103125 22.798437 35.103125 24.798437 
L 35.103125 170.579687 
Q 35.103125 172.579687 37.103125 172.579687 
z
" style="fill: #ffffff; opacity: 0.8; stroke: #cccccc; stroke-linejoin: miter"/>
    </g>
    <g id="line2d_22">
     <path d="M 39.103125 30.896875 
L 49.103125 30.896875 
L 59.103125 30.896875 
" style="fill: none; stroke: #1f77b4; stroke-width: 1.5; stroke-linecap: square"/>
    </g>
    <g id="text_13">
     <!-- dfs b=10 -->
     <g transform="translate(67.103125 34.396875) scale(0.1 -0.1)">
      <defs>
       <path id="DejaVuSans-64" d="M 2906 2969 
L 2906 4863 
L 3481 4863 
L 3481 0 
L 2906 0 
L 2906 525 
Q 2725 213 2448 61 
Q 2172 -91 1784 -91 
Q 1150 -91 751 415 
Q 353 922 353 1747 
Q 353 2572 751 3078 
Q 1150 3584 1784 3584 
Q 2172 3584 2448 3432 
Q 2725 3281 2906 2969 
z
M 947 1747 
Q 947 1113 1208 752 
Q 1469 391 1925 391 
Q 2381 391 2643 752 
Q 2906 1113 2906 1747 
Q 2906 2381 2643 2742 
Q 2381 3103 1925 3103 
Q 1469 3103 1208 2742 
Q 947 2381 947 1747 
z
" transform="scale(0.015625)"/>
       <path id="DejaVuSans-66" d="M 2375 4863 
L 2375 4384 
L 1825 4384 
Q 1516 4384 1395 4259 
Q 1275 4134 1275 3809 
L 1275 3500 
L 2222 3500 
L 2222 3053 
L 1275 3053 
L 1275 0 
L 697 0 
L 697 3053 
L 147 3053 
L 147 3500 
L 697 3500 
L 697 3744 
Q 697 4328 969 4595 
Q 1241 4863 1831 4863 
L 2375 4863 
z
" transform="scale(0.015625)"/>
       <path id="DejaVuSans-73" d="M 2834 3397 
L 2834 2853 
Q 2591 2978 2328 3040 
Q 2066 3103 1784 3103 
Q 1356 3103 1142 2972 
Q 928 2841 928 2578 
Q 928 2378 1081 2264 
Q 1234 2150 1697 2047 
L 1894 2003 
Q 2506 1872 2764 1633 
Q 3022 1394 3022 966 
Q 3022 478 2636 193 
Q 2250 -91 1575 -91 
Q 1294 -91 989 -36 
Q 684 19 347 128 
L 347 722 
Q 666 556 975 473 
Q 1284 391 1588 391 
Q 1994 391 2212 530 
Q 2431 669 2431 922 
Q 2431 1156 2273 1281 
Q 2116 1406 1581 1522 
L 1381 1569 
Q 847 1681 609 1914 
Q 372 2147 372 2553 
Q 372 3047 722 3315 
Q 1072 3584 1716 3584 
Q 2034 3584 2315 3537 
Q 2597 3491 2834 3397 
z
" transform="scale(0.015625)"/>
       <path id="DejaVuSans-20" transform="scale(0.015625)"/>
       <path id="DejaVuSans-62" d="M 3116 1747 
Q 3116 2381 2855 2742 
Q 2594 3103 2138 3103 
Q 1681 3103 1420 2742 
Q 1159 2381 1159 1747 
Q 1159 1113 1420 752 
Q 1681 391 2138 391 
Q 2594 391 2855 752 
Q 3116 1113 3116 1747 
z
M 1159 2969 
Q 1341 3281 1617 3432 
Q 1894 3584 2278 3584 
Q 2916 3584 3314 3078 
Q 3713 2572 3713 1747 
Q 3713 922 3314 415 
Q 2916 -91 2278 -91 
Q 1894 -91 1617 61 
Q 1341 213 1159 525 
L 1159 0 
L 581 0 
L 581 4863 
L 1159 4863 
L 1159 2969 
z
" transform="scale(0.015625)"/>
       <path id="DejaVuSans-3d" d="M 678 2906 
L 4684 2906 
L 4684 2381 
L 678 2381 
L 678 2906 
z
M 678 1631 
L 4684 1631 
L 4684 1100 
L 678 1100 
L 678 1631 
z
" transform="scale(0.015625)"/>
      </defs>
      <use xlink:href="#DejaVuSans-64"/>
      <use xlink:href="#DejaVuSans-66" x="63.476562"/>
      <use xlink:href="#DejaVuSans-73" x="98.681641"/>
      <use xlink:href="#DejaVuSans-20" x="150.78125"/>
      <use xlink:href="#DejaVuSans-62" x="182.568359"/>
      <use xlink:href="#DejaVuSans-3d" x="246.044922"/>
      <use xlink:href="#DejaVuSans-31" x="329.833984"/>
      <use xlink:href="#DejaVuSans-30" x="393.457031"/>
     </g>
    </g>
    <g id="line2d_23">
     <path d="M 39.103125 45.575 
L 49.103125 45.575 
L 59.103125 45.575 
" style="fill: none; stroke: #ff7f0e; stroke-width: 1.5; stroke-linecap: square"/>
    </g>
    <g id="text_14">
     <!-- iddfs b=10 -->
     <g transform="translate(67.103125 49.075) scale(0.1 -0.1)">
      <defs>
       <path id="DejaVuSans-69" d="M 603 3500 
L 1178 3500 
L 1178 0 
L 603 0 
L 603 3500 
z
M 603 4863 
L 1178 4863 
L 1178 4134 
L 603 4134 
L 603 4863 
z
" transform="scale(0.015625)"/>
      </defs>
      <use xlink:href="#DejaVuSans-69"/>
      <use xlink:href="#DejaVuSans-64" x="27.783203"/>
      <use xlink:href="#DejaVuSans-64" x="91.259766"/>
      <use xlink:href="#DejaVuSans-66" x="154.736328"/>
      <use xlink:href="#DejaVuSans-73" x="189.941406"/>
      <use xlink:href="#DejaVuSans-20" x="242.041016"/>
      <use xlink:href="#DejaVuSans-62" x="273.828125"/>
      <use xlink:href="#DejaVuSans-3d" x="337.304688"/>
      <use xlink:href="#DejaVuSans-31" x="421.09375"/>
      <use xlink:href="#DejaVuSans-30" x="484.716797"/>
     </g>
    </g>
    <g id="line2d_24">
     <path d="M 39.103125 60.253125 
L 49.103125 60.253125 
L 59.103125 60.253125 
" style="fill: none; stroke: #2ca02c; stroke-width: 1.5; stroke-linecap: square"/>
    </g>
    <g id="text_15">
     <!-- dfs b=13 -->
     <g transform="translate(67.103125 63.753125) scale(0.1 -0.1)">
      <defs>
       <path id="DejaVuSans-33" d="M 2597 2516 
Q 3050 2419 3304 2112 
Q 3559 1806 3559 1356 
Q 3559 666 3084 287 
Q 2609 -91 1734 -91 
Q 1441 -91 1130 -33 
Q 819 25 488 141 
L 488 750 
Q 750 597 1062 519 
Q 1375 441 1716 441 
Q 2309 441 2620 675 
Q 2931 909 2931 1356 
Q 2931 1769 2642 2001 
Q 2353 2234 1838 2234 
L 1294 2234 
L 1294 2753 
L 1863 2753 
Q 2328 2753 2575 2939 
Q 2822 3125 2822 3475 
Q 2822 3834 2567 4026 
Q 2313 4219 1838 4219 
Q 1578 4219 1281 4162 
Q 984 4106 628 3988 
L 628 4550 
Q 988 4650 1302 4700 
Q 1616 4750 1894 4750 
Q 2613 4750 3031 4423 
Q 3450 4097 3450 3541 
Q 3450 3153 3228 2886 
Q 3006 2619 2597 2516 
z
" transform="scale(0.015625)"/>
      </defs>
      <use xlink:href="#DejaVuSans-64"/>
      <use xlink:href="#DejaVuSans-66" x="63.476562"/>
      <use xlink:href="#DejaVuSans-73" x="98.681641"/>
      <use xlink:href="#DejaVuSans-20" x="150.78125"/>
      <use xlink:href="#DejaVuSans-62" x="182.568359"/>
      <use xlink:href="#DejaVuSans-3d" x="246.044922"/>
      <use xlink:href="#DejaVuSans-31" x="329.833984"/>
      <use xlink:href="#DejaVuSans-33" x="393.457031"/>
     </g>
    </g>
    <g id="line2d_25">
     <path d="M 39.103125 74.93125 
L 49.103125 74.93125 
L 59.103125 74.93125 
" style="fill: none; stroke: #d62728; stroke-width: 1.5; stroke-linecap: square"/>
    </g>
    <g id="text_16">
     <!-- iddfs b=13 -->
     <g transform="translate(67.103125 78.43125) scale(0.1 -0.1)">
      <use xlink:href="#DejaVuSans-69"/>
      <use xlink:href="#DejaVuSans-64" x="27.783203"/>
      <use xlink:href="#DejaVuSans-64" x="91.259766"/>
      <use xlink:href="#DejaVuSans-66" x="154.736328"/>
      <use xlink:href="#DejaVuSans-73" x="189.941406"/>
      <use xlink:href="#DejaVuSans-20" x="242.041016"/>
      <use xlink:href="#DejaVuSans-62" x="273.828125"/>
      <use xlink:href="#DejaVuSans-3d" x="337.304688"/>
      <use xlink:href="#DejaVuSans-31" x="421.09375"/>
      <use xlink:href="#DejaVuSans-33" x="484.716797"/>
     </g>
    </g>
    <g id="line2d_26">
     <path d="M 39.103125 89.609375 
L 49.103125 89.609375 
L 59.103125 89.609375 
" style="fill: none; stroke: #9467bd; stroke-width: 1.5; stroke-linecap: square"/>
    </g>
    <g id="text_17">
     <!-- dfs b=16 -->
     <g transform="translate(67.103125 93.109375) scale(0.1 -0.1)">
      <use xlink:href="#DejaVuSans-64"/>
      <use xlink:href="#DejaVuSans-66" x="63.476562"/>
      <use xlink:href="#DejaVuSans-73" x="98.681641"/>
      <use xlink:href="#DejaVuSans-20" x="150.78125"/>
      <use xlink:href="#DejaVuSans-62" x="182.568359"/>
      <use xlink:href="#DejaVuSans-3d" x="246.044922"/>
      <use xlink:href="#DejaVuSans-31" x="329.833984"/>
      <use xlink:href="#DejaVuSans-36" x="393.457031"/>
     </g>
    </g>
    <g id="line2d_27">
     <path d="M 39.103125 104.2875 
L 49.103125 104.2875 
L 59.103125 104.2875 
" style="fill: none; stroke: #8c564b; stroke-width: 1.5; stroke-linecap: square"/>
    </g>
    <g id="text_18">
     <!-- iddfs b=16 -->
     <g transform="translate(67.103125 107.7875) scale(0.1 -0.1)">
      <use xlink:href="#DejaVuSans-69"/>
      <use xlink:href="#DejaVuSans-64" x="27.783203"/>
      <use xlink:href="#DejaVuSans-64" x="91.259766"/>
      <use xlink:href="#DejaVuSans-66" x="154.736328"/>
      <use xlink:href="#DejaVuSans-73" x="189.941406"/>
      <use xlink:href="#DejaVuSans-20" x="242.041016"/>
      <use xlink:href="#DejaVuSans-62" x="273.828125"/>
      <use xlink:href="#DejaVuSans-3d" x="337.304688"/>
      <use xlink:href="#DejaVuSans-31" x="421.09375"/>
      <use xlink:href="#DejaVuSans-36" x="484.716797"/>
     </g>
    </g>
    <g id="line2d_28">
     <path d="M 39.103125 118.965625 
L 49.103125 118.965625 
L 59.103125 118.965625 
" style="fill: none; stroke: #e377c2; stroke-width: 1.5; stroke-linecap: square"/>
    </g>
    <g id="text_19">
     <!-- dfs b=19 -->
     <g transform="translate(67.103125 122.465625) scale(0.1 -0.1)">
      <defs>
       <path id="DejaVuSans-39" d="M 703 97 
L 703 672 
Q 941 559 1184 500 
Q 1428 441 1663 441 
Q 2288 441 2617 861 
Q 2947 1281 2994 2138 
Q 2813 1869 2534 1725 
Q 2256 1581 1919 1581 
Q 1219 1581 811 2004 
Q 403 2428 403 3163 
Q 403 3881 828 4315 
Q 1253 4750 1959 4750 
Q 2769 4750 3195 4129 
Q 3622 3509 3622 2328 
Q 3622 1225 3098 567 
Q 2575 -91 1691 -91 
Q 1453 -91 1209 -44 
Q 966 3 703 97 
z
M 1959 2075 
Q 2384 2075 2632 2365 
Q 2881 2656 2881 3163 
Q 2881 3666 2632 3958 
Q 2384 4250 1959 4250 
Q 1534 4250 1286 3958 
Q 1038 3666 1038 3163 
Q 1038 2656 1286 2365 
Q 1534 2075 1959 2075 
z
" transform="scale(0.015625)"/>
      </defs>
      <use xlink:href="#DejaVuSans-64"/>
      <use xlink:href="#DejaVuSans-66" x="63.476562"/>
      <use xlink:href="#DejaVuSans-73" x="98.681641"/>
      <use xlink:href="#DejaVuSans-20" x="150.78125"/>
      <use xlink:href="#DejaVuSans-62" x="182.568359"/>
      <use xlink:href="#DejaVuSans-3d" x="246.044922"/>
      <use xlink:href="#DejaVuSans-31" x="329.833984"/>
      <use xlink:href="#DejaVuSans-39" x="393.457031"/>
     </g>
    </g>
    <g id="line2d_29">
     <path d="M 39.103125 133.64375 
L 49.103125 133.64375 
L 59.103125 133.64375 
" style="fill: none; stroke: #7f7f7f; stroke-width: 1.5; stroke-linecap: square"/>
    </g>
    <g id="text_20">
     <!-- iddfs b=19 -->
     <g transform="translate(67.103125 137.14375) scale(0.1 -0.1)">
      <use xlink:href="#DejaVuSans-69"/>
      <use xlink:href="#DejaVuSans-64" x="27.783203"/>
      <use xlink:href="#DejaVuSans-64" x="91.259766"/>
      <use xlink:href="#DejaVuSans-66" x="154.736328"/>
      <use xlink:href="#DejaVuSans-73" x="189.941406"/>
      <use xlink:href="#DejaVuSans-20" x="242.041016"/>
      <use xlink:href="#DejaVuSans-62" x="273.828125"/>
      <use xlink:href="#DejaVuSans-3d" x="337.304688"/>
      <use xlink:href="#DejaVuSans-31" x="421.09375"/>
      <use xlink:href="#DejaVuSans-39" x="484.716797"/>
     </g>
    </g>
    <g id="line2d_30">
     <path d="M 39.103125 148.321875 
L 49.103125 148.321875 
L 59.103125 148.321875 
" style="fill: none; stroke: #bcbd22; stroke-width: 1.5; stroke-linecap: square"/>
    </g>
    <g id="text_21">
     <!-- dfs b=22 -->
     <g transform="translate(67.103125 151.821875) scale(0.1 -0.1)">
      <use xlink:href="#DejaVuSans-64"/>
      <use xlink:href="#DejaVuSans-66" x="63.476562"/>
      <use xlink:href="#DejaVuSans-73" x="98.681641"/>
      <use xlink:href="#DejaVuSans-20" x="150.78125"/>
      <use xlink:href="#DejaVuSans-62" x="182.568359"/>
      <use xlink:href="#DejaVuSans-3d" x="246.044922"/>
      <use xlink:href="#DejaVuSans-32" x="329.833984"/>
      <use xlink:href="#DejaVuSans-32" x="393.457031"/>
     </g>
    </g>
    <g id="line2d_31">
     <path d="M 39.103125 163 
L 49.103125 163 
L 59.103125 163 
" style="fill: none; stroke: #17becf; stroke-width: 1.5; stroke-linecap: square"/>
    </g>
    <g id="text_22">
     <!-- iddfs b=22 -->
     <g transform="translate(67.103125 166.5) scale(0.1 -0.1)">
      <use xlink:href="#DejaVuSans-69"/>
      <use xlink:href="#DejaVuSans-64" x="27.783203"/>
      <use xlink:href="#DejaVuSans-64" x="91.259766"/>
      <use xlink:href="#DejaVuSans-66" x="154.736328"/>
      <use xlink:href="#DejaVuSans-73" x="189.941406"/>
      <use xlink:href="#DejaVuSans-20" x="242.041016"/>
      <use xlink:href="#DejaVuSans-62" x="273.828125"/>
      <use xlink:href="#DejaVuSans-3d" x="337.304688"/>
      <use xlink:href="#DejaVuSans-32" x="421.09375"/>
      <use xlink:href="#DejaVuSans-32" x="484.716797"/>
     </g>
    </g>
   </g>
  </g>
  <g id="axes_2">
   <g id="patch_8">
    <path d="M 224.895852 283.910437 
L 387.223125 283.910437 
L 387.223125 17.798437 
L 224.895852 17.798437 
z
" style="fill: #ffffff"/>
   </g>
   <g id="matplotlib.axis_3">
    <g id="xtick_5">
     <g id="line2d_32">
      <g>
       <use xlink:href="#m98f5128f43" x="256.869406" y="283.910437" style="stroke: #000000; stroke-width: 0.8"/>
      </g>
     </g>
     <g id="text_23">
      <!-- 4 -->
      <g transform="translate(253.688156 298.508875) scale(0.1 -0.1)">
       <use xlink:href="#DejaVuSans-34"/>
      </g>
     </g>
    </g>
    <g id="xtick_6">
     <g id="line2d_33">
      <g>
       <use xlink:href="#m98f5128f43" x="306.059489" y="283.910437" style="stroke: #000000; stroke-width: 0.8"/>
      </g>
     </g>
     <g id="text_24">
      <!-- 6 -->
      <g transform="translate(302.878239 298.508875) scale(0.1 -0.1)">
       <use xlink:href="#DejaVuSans-36"/>
      </g>
     </g>
    </g>
    <g id="xtick_7">
     <g id="line2d_34">
      <g>
       <use xlink:href="#m98f5128f43" x="355.249571" y="283.910437" style="stroke: #000000; stroke-width: 0.8"/>
      </g>
     </g>
     <g id="text_25">
      <!-- 8 -->
      <g transform="translate(352.068321 298.508875) scale(0.1 -0.1)">
       <use xlink:href="#DejaVuSans-38"/>
      </g>
     </g>
    </g>
   </g>
   <g id="matplotlib.axis_4">
    <g id="ytick_8">
     <g id="line2d_35">
      <g>
       <use xlink:href="#m0ceebd92df" x="224.895852" y="271.814437" style="stroke: #000000; stroke-width: 0.8"/>
      </g>
     </g>
     <g id="text_26">
      <!-- 1.00 -->
      <g transform="translate(195.630227 275.613656) scale(0.1 -0.1)">
       <use xlink:href="#DejaVuSans-31"/>
       <use xlink:href="#DejaVuSans-2e" x="63.623047"/>
       <use xlink:href="#DejaVuSans-30" x="95.410156"/>
       <use xlink:href="#DejaVuSans-30" x="159.033203"/>
      </g>
     </g>
    </g>
    <g id="ytick_9">
     <g id="line2d_36">
      <g>
       <use xlink:href="#m0ceebd92df" x="224.895852" y="228.268563" style="stroke: #000000; stroke-width: 0.8"/>
      </g>
     </g>
     <g id="text_27">
      <!-- 1.02 -->
      <g transform="translate(195.630227 232.067782) scale(0.1 -0.1)">
       <use xlink:href="#DejaVuSans-31"/>
       <use xlink:href="#DejaVuSans-2e" x="63.623047"/>
       <use xlink:href="#DejaVuSans-30" x="95.410156"/>
       <use xlink:href="#DejaVuSans-32" x="159.033203"/>
      </g>
     </g>
    </g>
    <g id="ytick_10">
     <g id="line2d_37">
      <g>
       <use xlink:href="#m0ceebd92df" x="224.895852" y="184.722689" style="stroke: #000000; stroke-width: 0.8"/>
      </g>
     </g>
     <g id="text_28">
      <!-- 1.04 -->
      <g transform="translate(195.630227 188.521908) scale(0.1 -0.1)">
       <use xlink:href="#DejaVuSans-31"/>
       <use xlink:href="#DejaVuSans-2e" x="63.623047"/>
       <use xlink:href="#DejaVuSans-30" x="95.410156"/>
       <use xlink:href="#DejaVuSans-34" x="159.033203"/>
      </g>
     </g>
    </g>
    <g id="ytick_11">
     <g id="line2d_38">
      <g>
       <use xlink:href="#m0ceebd92df" x="224.895852" y="141.176814" style="stroke: #000000; stroke-width: 0.8"/>
      </g>
     </g>
     <g id="text_29">
      <!-- 1.06 -->
      <g transform="translate(195.630227 144.976033) scale(0.1 -0.1)">
       <use xlink:href="#DejaVuSans-31"/>
       <use xlink:href="#DejaVuSans-2e" x="63.623047"/>
       <use xlink:href="#DejaVuSans-30" x="95.410156"/>
       <use xlink:href="#DejaVuSans-36" x="159.033203"/>
      </g>
     </g>
    </g>
    <g id="ytick_12">
     <g id="line2d_39">
      <g>
       <use xlink:href="#m0ceebd92df" x="224.895852" y="97.63094" style="stroke: #000000; stroke-width: 0.8"/>
      </g>
     </g>
     <g id="text_30">
      <!-- 1.08 -->
      <g transform="translate(195.630227 101.430159) scale(0.1 -0.1)">
       <use xlink:href="#DejaVuSans-31"/>
       <use xlink:href="#DejaVuSans-2e" x="63.623047"/>
       <use xlink:href="#DejaVuSans-30" x="95.410156"/>
       <use xlink:href="#DejaVuSans-38" x="159.033203"/>
      </g>
     </g>
    </g>
    <g id="ytick_13">
     <g id="line2d_40">
      <g>
       <use xlink:href="#m0ceebd92df" x="224.895852" y="54.085066" style="stroke: #000000; stroke-width: 0.8"/>
      </g>
     </g>
     <g id="text_31">
      <!-- 1.10 -->
      <g transform="translate(195.630227 57.884285) scale(0.1 -0.1)">
       <use xlink:href="#DejaVuSans-31"/>
       <use xlink:href="#DejaVuSans-2e" x="63.623047"/>
       <use xlink:href="#DejaVuSans-31" x="95.410156"/>
       <use xlink:href="#DejaVuSans-30" x="159.033203"/>
      </g>
     </g>
    </g>
   </g>
   <g id="line2d_41">
    <path d="M 232.274365 271.814437 
L 256.869406 73.878645 
L 281.464447 36.431333 
L 306.059489 30.763918 
L 330.65453 30.001779 
L 355.249571 29.905977 
L 379.844613 29.894437 
" clip-path="url(#p538319a13e)" style="fill: none; stroke: #1f77b4; stroke-width: 1.5; stroke-linecap: square"/>
   </g>
   <g id="line2d_42">
    <path d="M 232.274365 271.814437 
L 256.869406 116.293458 
L 281.464447 93.347739 
L 306.059489 90.678238 
L 330.65453 90.402615 
L 355.249571 90.376001 
L 379.844613 90.373537 
" clip-path="url(#p538319a13e)" style="fill: none; stroke: #ff7f0e; stroke-width: 1.5; stroke-linecap: square"/>
   </g>
   <g id="line2d_43">
    <path d="M 232.274365 271.814437 
L 256.869406 143.738337 
L 281.464447 128.25661 
L 306.059489 126.794417 
L 330.65453 126.671905 
L 355.249571 126.662302 
L 379.844613 126.66158 
" clip-path="url(#p538319a13e)" style="fill: none; stroke: #2ca02c; stroke-width: 1.5; stroke-linecap: square"/>
   </g>
   <g id="line2d_44">
    <path d="M 232.274365 271.814437 
L 256.869406 162.949752 
L 281.464447 151.806122 
L 306.059489 150.920505 
L 330.65453 150.858072 
L 355.249571 150.853953 
L 379.844613 150.853692 
" clip-path="url(#p538319a13e)" style="fill: none; stroke: #d62728; stroke-width: 1.5; stroke-linecap: square"/>
   </g>
   <g id="line2d_45">
    <path d="M 232.274365 271.814437 
L 256.869406 177.149493 
L 281.464447 168.747279 
L 306.059489 168.170962 
L 330.65453 168.135897 
L 355.249571 168.1339 
L 379.844613 168.13379 
" clip-path="url(#p538319a13e)" style="fill: none; stroke: #9467bd; stroke-width: 1.5; stroke-linecap: square"/>
   </g>
   <g id="patch_9">
    <path d="M 224.895852 283.910437 
L 224.895852 17.798437 
" style="fill: none; stroke: #000000; stroke-width: 0.8; stroke-linejoin: miter; stroke-linecap: square"/>
   </g>
   <g id="patch_10">
    <path d="M 387.223125 283.910437 
L 387.223125 17.798437 
" style="fill: none; stroke: #000000; stroke-width: 0.8; stroke-linejoin: miter; stroke-linecap: square"/>
   </g>
   <g id="patch_11">
    <path d="M 224.895852 283.910437 
L 387.223125 283.910437 
" style="fill: none; stroke: #000000; stroke-width: 0.8; stroke-linejoin: miter; stroke-linecap: square"/>
   </g>
   <g id="patch_12">
    <path d="M 224.895852 17.798437 
L 387.223125 17.798437 
" style="fill: none; stroke: #000000; stroke-width: 0.8; stroke-linejoin: miter; stroke-linecap: square"/>
   </g>
   <g id="legend_2">
    <g id="patch_13">
     <path d="M 274.940313 278.910437 
L 380.223125 278.910437 
Q 382.223125 278.910437 382.223125 276.910437 
L 382.223125 204.519812 
Q 382.223125 202.519812 380.223125 202.519812 
L 274.940313 202.519812 
Q 272.940313 202.519812 272.940313 204.519812 
L 272.940313 276.910437 
Q 272.940313 278.910437 274.940313 278.910437 
z
" style="fill: #ffffff; opacity: 0.8; stroke: #cccccc; stroke-linejoin: miter"/>
    </g>
    <g id="line2d_46">
     <path d="M 276.940313 210.61825 
L 286.940313 210.61825 
L 296.940313 210.61825 
" style="fill: none; stroke: #1f77b4; stroke-width: 1.5; stroke-linecap: square"/>
    </g>
    <g id="text_32">
     <!-- dfs/iddfs b=10 -->
     <g transform="translate(304.940313 214.11825) scale(0.1 -0.1)">
      <defs>
       <path id="DejaVuSans-2f" d="M 1625 4666 
L 2156 4666 
L 531 -594 
L 0 -594 
L 1625 4666 
z
" transform="scale(0.015625)"/>
      </defs>
      <use xlink:href="#DejaVuSans-64"/>
      <use xlink:href="#DejaVuSans-66" x="63.476562"/>
      <use xlink:href="#DejaVuSans-73" x="98.681641"/>
      <use xlink:href="#DejaVuSans-2f" x="150.78125"/>
      <use xlink:href="#DejaVuSans-69" x="184.472656"/>
      <use xlink:href="#DejaVuSans-64" x="212.255859"/>
      <use xlink:href="#DejaVuSans-64" x="275.732422"/>
      <use xlink:href="#DejaVuSans-66" x="339.208984"/>
      <use xlink:href="#DejaVuSans-73" x="374.414062"/>
      <use xlink:href="#DejaVuSans-20" x="426.513672"/>
      <use xlink:href="#DejaVuSans-62" x="458.300781"/>
      <use xlink:href="#DejaVuSans-3d" x="521.777344"/>
      <use xlink:href="#DejaVuSans-31" x="605.566406"/>
      <use xlink:href="#DejaVuSans-30" x="669.189453"/>
     </g>
    </g>
    <g id="line2d_47">
     <path d="M 276.940313 225.296375 
L 286.940313 225.296375 
L 296.940313 225.296375 
" style="fill: none; stroke: #ff7f0e; stroke-width: 1.5; stroke-linecap: square"/>
    </g>
    <g id="text_33">
     <!-- dfs/iddfs b=13 -->
     <g transform="translate(304.940313 228.796375) scale(0.1 -0.1)">
      <use xlink:href="#DejaVuSans-64"/>
      <use xlink:href="#DejaVuSans-66" x="63.476562"/>
      <use xlink:href="#DejaVuSans-73" x="98.681641"/>
      <use xlink:href="#DejaVuSans-2f" x="150.78125"/>
      <use xlink:href="#DejaVuSans-69" x="184.472656"/>
      <use xlink:href="#DejaVuSans-64" x="212.255859"/>
      <use xlink:href="#DejaVuSans-64" x="275.732422"/>
      <use xlink:href="#DejaVuSans-66" x="339.208984"/>
      <use xlink:href="#DejaVuSans-73" x="374.414062"/>
      <use xlink:href="#DejaVuSans-20" x="426.513672"/>
      <use xlink:href="#DejaVuSans-62" x="458.300781"/>
      <use xlink:href="#DejaVuSans-3d" x="521.777344"/>
      <use xlink:href="#DejaVuSans-31" x="605.566406"/>
      <use xlink:href="#DejaVuSans-33" x="669.189453"/>
     </g>
    </g>
    <g id="line2d_48">
     <path d="M 276.940313 239.9745 
L 286.940313 239.9745 
L 296.940313 239.9745 
" style="fill: none; stroke: #2ca02c; stroke-width: 1.5; stroke-linecap: square"/>
    </g>
    <g id="text_34">
     <!-- dfs/iddfs b=16 -->
     <g transform="translate(304.940313 243.4745) scale(0.1 -0.1)">
      <use xlink:href="#DejaVuSans-64"/>
      <use xlink:href="#DejaVuSans-66" x="63.476562"/>
      <use xlink:href="#DejaVuSans-73" x="98.681641"/>
      <use xlink:href="#DejaVuSans-2f" x="150.78125"/>
      <use xlink:href="#DejaVuSans-69" x="184.472656"/>
      <use xlink:href="#DejaVuSans-64" x="212.255859"/>
      <use xlink:href="#DejaVuSans-64" x="275.732422"/>
      <use xlink:href="#DejaVuSans-66" x="339.208984"/>
      <use xlink:href="#DejaVuSans-73" x="374.414062"/>
      <use xlink:href="#DejaVuSans-20" x="426.513672"/>
      <use xlink:href="#DejaVuSans-62" x="458.300781"/>
      <use xlink:href="#DejaVuSans-3d" x="521.777344"/>
      <use xlink:href="#DejaVuSans-31" x="605.566406"/>
      <use xlink:href="#DejaVuSans-36" x="669.189453"/>
     </g>
    </g>
    <g id="line2d_49">
     <path d="M 276.940313 254.652625 
L 286.940313 254.652625 
L 296.940313 254.652625 
" style="fill: none; stroke: #d62728; stroke-width: 1.5; stroke-linecap: square"/>
    </g>
    <g id="text_35">
     <!-- dfs/iddfs b=19 -->
     <g transform="translate(304.940313 258.152625) scale(0.1 -0.1)">
      <use xlink:href="#DejaVuSans-64"/>
      <use xlink:href="#DejaVuSans-66" x="63.476562"/>
      <use xlink:href="#DejaVuSans-73" x="98.681641"/>
      <use xlink:href="#DejaVuSans-2f" x="150.78125"/>
      <use xlink:href="#DejaVuSans-69" x="184.472656"/>
      <use xlink:href="#DejaVuSans-64" x="212.255859"/>
      <use xlink:href="#DejaVuSans-64" x="275.732422"/>
      <use xlink:href="#DejaVuSans-66" x="339.208984"/>
      <use xlink:href="#DejaVuSans-73" x="374.414062"/>
      <use xlink:href="#DejaVuSans-20" x="426.513672"/>
      <use xlink:href="#DejaVuSans-62" x="458.300781"/>
      <use xlink:href="#DejaVuSans-3d" x="521.777344"/>
      <use xlink:href="#DejaVuSans-31" x="605.566406"/>
      <use xlink:href="#DejaVuSans-39" x="669.189453"/>
     </g>
    </g>
    <g id="line2d_50">
     <path d="M 276.940313 269.33075 
L 286.940313 269.33075 
L 296.940313 269.33075 
" style="fill: none; stroke: #9467bd; stroke-width: 1.5; stroke-linecap: square"/>
    </g>
    <g id="text_36">
     <!-- dfs/iddfs b=22 -->
     <g transform="translate(304.940313 272.83075) scale(0.1 -0.1)">
      <use xlink:href="#DejaVuSans-64"/>
      <use xlink:href="#DejaVuSans-66" x="63.476562"/>
      <use xlink:href="#DejaVuSans-73" x="98.681641"/>
      <use xlink:href="#DejaVuSans-2f" x="150.78125"/>
      <use xlink:href="#DejaVuSans-69" x="184.472656"/>
      <use xlink:href="#DejaVuSans-64" x="212.255859"/>
      <use xlink:href="#DejaVuSans-64" x="275.732422"/>
      <use xlink:href="#DejaVuSans-66" x="339.208984"/>
      <use xlink:href="#DejaVuSans-73" x="374.414062"/>
      <use xlink:href="#DejaVuSans-20" x="426.513672"/>
      <use xlink:href="#DejaVuSans-62" x="458.300781"/>
      <use xlink:href="#DejaVuSans-3d" x="521.777344"/>
      <use xlink:href="#DejaVuSans-32" x="605.566406"/>
      <use xlink:href="#DejaVuSans-32" x="669.189453"/>
     </g>
    </g>
   </g>
  </g>
 </g>
 <defs>
  <clipPath id="pdd0cf12f6b">
   <rect x="30.103125" y="17.798437" width="162.327273" height="266.112"/>
  </clipPath>
  <clipPath id="p538319a13e">
   <rect x="224.895852" y="17.798437" width="162.327273" height="266.112"/>
  </clipPath>
 </defs>
</svg>
